<?xml version="1.0" encoding="UTF-8"?>
<svg width="1000px" height="680px" viewBox="0 0 1000 680" version="1.1" xmlns="http://www.w3.org/2000/svg" xmlns:xlink="http://www.w3.org/1999/xlink">
    <!-- Generator: Sketch 52.6 (67491) - http://www.bohemiancoding.com/sketch -->
    <title>Artboard Copy 3</title>
    <desc>Created with Sketch.</desc>
    <defs>
        <linearGradient x1="50%" y1="-13.5393183%" x2="50%" y2="59.5953389%" id="linearGradient-1">
            <stop stop-color="#DCE1EE" offset="0%"></stop>
            <stop stop-color="#516BAA" offset="100%"></stop>
        </linearGradient>
        <linearGradient x1="50%" y1="0%" x2="50%" y2="100%" id="linearGradient-2">
            <stop stop-color="#FFFFFF" offset="0%"></stop>
            <stop stop-color="#F2F6FF" offset="100%"></stop>
        </linearGradient>
        <linearGradient x1="50%" y1="35.3188784%" x2="50%" y2="-15.9102297%" id="linearGradient-3">
            <stop stop-color="#516BAA" offset="0%"></stop>
            <stop stop-color="#DCE1EE" offset="100%"></stop>
        </linearGradient>
        <linearGradient x1="50%" y1="0%" x2="50%" y2="100%" id="linearGradient-4">
            <stop stop-color="#FFFFFF" offset="0%"></stop>
            <stop stop-color="#F0F5FF" offset="100%"></stop>
        </linearGradient>
        <linearGradient x1="50%" y1="33.8648156%" x2="67.319361%" y2="133.116064%" id="linearGradient-5">
            <stop stop-color="#FFFFFF" offset="0%"></stop>
            <stop stop-color="#DFDFDF" offset="100%"></stop>
        </linearGradient>
    </defs>
    <g id="Artboard-Copy-3" stroke="none" stroke-width="1" fill="none" fill-rule="evenodd">
        <rect fill="#D5F3E7" x="0" y="0" width="1000" height="680"></rect>
        <path d="M911.11655,671 C961.288565,671 1105.64739,628.714286 1058.76577,566.635258 C1011.88414,504.556231 916.844283,375 907.222723,375 C897.601163,375 806.044133,495.109422 755.059799,562.547096 C704.075464,629.98477 860.944536,671 911.11655,671 Z" id="Oval-Copy-6" fill="url(#linearGradient-1)" fill-rule="nonzero"></path>
        <path d="M876.80181,405.532141 C885.204416,395.506662 900.442941,375 907.140109,375 C911.604888,375 925.558185,390.935793 949,422.80738 C943.688979,426.480674 939.491168,428.317321 936.406566,428.317321 C933.321964,428.317321 928.826228,426.480674 922.919358,422.80738 C919.769513,429.247898 915.573493,432.907359 910.331298,433.785765 C905.089103,434.66417 900.728723,432.841355 897.250157,428.317321 C890.740344,431.96295 884.310958,433.785765 877.962,433.785765 C871.613041,433.785765 865.959041,431.203444 861,426.038803 C865.932802,419.051348 871.200072,412.215794 876.80181,405.532141 Z" id="Path-71-Copy-5" fill="url(#linearGradient-2)" fill-rule="nonzero"></path>
        <path d="M986.857656,471.5 C982.578773,465.706221 979.342794,461.347187 977.149719,458.422897 C971.738855,451.207944 963.622559,440.836449 960.015317,436.327103 C956.408075,431.817757 952.548203,426.677103 948.297168,420.995327 C944.046133,415.313551 945.114964,417.347474 941.979105,412.878505 C939.888532,409.899192 936.281289,405.389846 931.157377,399.350467 C926.392492,393.535005 922.38704,388.725036 919.14102,384.920561 C918.233677,383.857115 915.834388,380.131495 911.47563,376.803738 C910.595885,376.132084 909.040172,375.530838 906.808491,375 L896.144849,458.422897 L894.546252,468.210871 C887.195085,463.18867 883.218897,461.024184 882.61769,461.717413 C882.016483,462.410641 880.212862,469.27898 877.206826,482.32243 C871.495359,478.714953 868.339022,477.211838 867.737815,477.813084 C866.836004,478.714953 841.923876,512.570294 840.683496,514.78972 C839.276829,517.306686 833.715664,526.024755 824,540.943925 L845.19255,568 L1052,558.981308 L986.857656,471.5 Z" id="Path-94-Copy-2" fill-opacity="0.7" fill="#374C7F" fill-rule="nonzero"></path>
        <path d="M559.416778,685 C575.920554,685 620.114962,685 692,685 C658.004168,624.465024 636.174468,585.853913 626.510898,569.166667 C591.624638,508.924376 561.160316,470 555.928933,470 C550.697549,470 511.20671,529.5 487.042966,570.068182 C467.226208,603.338268 444.878553,641.648874 420,685 C501.054234,685 547.526493,685 559.416778,685 Z" id="Oval-Copy-4" fill="url(#linearGradient-3)" fill-rule="nonzero"></path>
        <path d="M545.960152,480.047086 C548.949031,476.489453 553.48652,470 555.700158,470 C557.913796,470 559.241978,471.671209 560.570161,472.740114 C561.898344,473.80902 566.100287,479.120461 571.195622,485.527315 C572.639656,487.343037 577.574448,494.42954 586,506.786824 C584.344271,509.810399 581.860677,511.882969 578.549219,513.004534 C575.237761,514.1261 569.608282,513.565317 561.660783,511.322186 C556.913607,515.395868 553.602149,517.579561 551.726408,517.873264 C547.799068,518.488207 544.48761,516.865297 541.792034,513.004534 C537.79001,514.732018 534.312979,515.34707 531.360941,514.84969 C528.408903,514.352309 526.288589,512.838547 525,510.308403 C536.533723,493.038156 543.52044,482.951051 545.960152,480.047086 Z" id="Path-71-Copy-3" fill="url(#linearGradient-4)" fill-rule="nonzero"></path>
        <path d="M710.692753,681 C760.864735,681 905.669992,647.714286 858.788396,585.635258 C811.906799,523.556231 716.867006,394 707.245452,394 C697.623898,394 606.066929,514.109422 555.082628,581.547096 C504.098326,648.98477 660.520772,681 710.692753,681 Z" id="Oval-Copy-5" fill="url(#linearGradient-1)" fill-rule="nonzero"></path>
        <path d="M676.80181,424.532141 C685.204416,414.506662 700.442941,394 707.140109,394 C711.604888,394 725.558185,409.935793 749,441.80738 C743.688979,445.480674 739.491168,447.317321 736.406566,447.317321 C733.321964,447.317321 728.826228,445.480674 722.919358,441.80738 C719.769513,448.247898 715.573493,451.907359 710.331298,452.785765 C705.089103,453.66417 700.728723,451.841355 697.250157,447.317321 C690.740344,450.96295 684.310958,452.785765 677.962,452.785765 C671.613041,452.785765 665.959041,450.203444 661,445.038803 C665.932802,438.051348 671.200072,431.215794 676.80181,424.532141 Z" id="Path-71-Copy-4" fill="url(#linearGradient-2)" fill-rule="nonzero"></path>
        <path d="M787.620789,490.230519 C783.349295,484.45292 780.118905,480.106058 777.929617,477.189935 C772.528099,469.99513 764.42582,459.652597 760.824808,455.155844 C757.223795,450.659091 752.725223,444.813312 750.098326,441.215909 C747.471429,437.618506 745.907242,434.920455 742.901674,431.323052 C740.897961,428.924784 737.299635,424.42803 732.106695,417.832792 C727.850595,412.633137 724.102338,408.136384 720.861925,404.342532 C719.091923,402.270228 715.014644,398.047078 712.76569,396.248377 C711.266388,395.049242 709.581115,394.299784 707.709873,394 C707.171647,444.48355 706.582004,471.793831 705.940944,475.930844 C705.299883,480.067857 699.687279,495.446753 689.103131,522.067532 C682.002141,516.731385 678.032821,514.572944 677.19517,515.592208 C676.357519,516.611472 672.637896,525.245238 666.0363,541.493506 C663.210075,529.502165 661.094844,524.761462 659.690606,527.2714 C658.286368,529.781338 651.389499,550.110784 639,588.25974 C650.3947,608.045455 658.191074,621.235931 662.389121,627.831169 C664.198134,630.673173 666.273373,635.135077 669.585774,640.871753 C672.502078,645.922437 678.349358,655.965185 687.127615,671 L854,577.467532 L787.620789,490.230519 Z" id="Path-94-Copy" fill-opacity="0.7" fill="#374C7F" fill-rule="nonzero"></path>
        <path d="M554.944855,470 L554.944855,534.909091 L540.986054,577.280303 C534.713259,572.472222 530.827887,570.068182 529.329939,570.068182 C528.789688,570.068182 522.6481,589.60101 510.905174,628.666667 C506.411329,621.454545 503.565228,618.449495 502.366869,619.651515 C501.16851,620.853535 491.379554,642.636364 473,685 L696,685 C665.775835,634.222222 646.469497,601.621212 638.080986,587.19697 C625.49822,565.560606 607.69074,536.64141 597.186997,522.738636 C591.398322,515.076735 579.717017,496.962722 575.167157,491.185606 C569.60468,484.122734 566.179467,479.916667 564.831314,478.113636 C563.48316,476.310606 561.209038,473.561122 558.989315,471.80303 C557.5095,470.630969 556.161347,470.029959 554.944855,470 Z" id="Path-95-Copy" fill-opacity="0.7" fill="#374C7F" fill-rule="nonzero"></path>
        <path d="M672,685 C676.172843,678.874475 685.660562,667.618108 700.463159,651.230898 C722.667054,626.650084 763.099097,608.468828 771.407312,602.069269 C779.715528,595.66971 775.198221,594.505942 786.02939,585.321901 C793.147373,579.286371 799.348982,574.204631 821.772246,567.494058 C832.603414,564.252632 861.861368,548.083473 884.160551,541.38257 C927.524253,528.351781 967.470736,518.890924 1004,513 L1004,685 L672,685 Z" id="Path-93" fill="url(#linearGradient-5)" fill-rule="nonzero"></path>
        <g id="Group" transform="translate(725.000000, 483.000000)" fill-rule="nonzero">
            <path d="M16.4213001,139.1 L25.5077192,137.8 C23.8040421,141.096985 21.8569523,144.996985 19.6664498,149.5 C16.380696,156.254523 14.2458827,160.382395 13.1761505,163.15 C12.4629957,164.99507 12.030309,167.161737 11.8780906,169.65 L7.98391104,168.256239 C8.84928428,157.918746 9.71465752,151.666667 10.5800308,149.5 C11.445404,147.333333 13.3924938,143.866667 16.4213001,139.1 Z" id="Path-49" fill="#D2A798"></path>
            <path d="M131.85,11.2306781 C131.563295,9.6572729 130.963295,8.7562828 130.05,8.52770779 C128.680057,8.18484527 130.310348,7.45673191 125.55,9.42869789 C122.376435,10.7433419 119.526435,12.244992 117,13.9336484 L120.15,20.2405791 L131.85,11.2306781 Z" id="Path-5" fill="#1A2634"></path>
            <path d="M7.65,168.034653 C8.11536156,167.827517 11.353808,169.303341 11.7,169.386139 C12.5026647,169.57811 11.3442466,170.545394 12.1213358,171.461188 C13.9964335,173.670977 15.0349111,176.676832 14.7174556,177.311188 C14.4,177.945545 9.67450277,179.527822 8.39971888,179.189505 C7.12493499,178.851188 5.90573989,175.095394 5.50297719,173.795394 C5.10021449,172.495394 6.10567291,168.722047 7.65,168.034653 Z" id="Path-50" fill="#1A2634"></path>
            <path d="M61.2043653,110.871429 C61.6370519,110.004762 61.8533952,110.654762 61.8533952,112.821429 C61.8533952,117.253261 59.3290316,120.734174 58.6082456,122.177901 C57.7428724,123.911234 55.7957826,127.680059 52.7669762,133.484374 L48.2237667,133.484374 C50.1724566,127.354326 51.2541732,123.670992 51.4689164,122.434374 C51.6836595,121.197755 51.6836595,119.510106 51.4689164,117.371429 L61.2043653,110.871429 Z" id="Path-79" fill="#D2A798"></path>
            <polygon id="Path-91" fill="#947368" points="120.266089 22.1 131.299598 20.39375 128.703478 13 117.020939 16.98125"></polygon>
            <path d="M30.0509287,71.5 L31.3489885,75.4 C33.0389208,75.49137 34.3369807,75.537055 35.2431681,75.537055 C36.1493555,75.537055 37.2310721,75.49137 38.4883178,75.4 L37.8392878,71.5 L30.0509287,71.5 Z" id="Path-92" fill="#D2A798"></path>
            <path d="M118.318999,57.2 C116.588253,61.5333333 115.290193,64.7833333 114.42482,66.95 C113.559446,69.1166667 113.12676,75.4 113.12676,85.8 L116.371909,85.8 C119.400716,74.9666667 121.131462,69.1166667 121.564149,68.25 C121.996835,67.3833333 123.943925,64.1333333 127.405418,58.5 L118.318999,57.2 Z" id="Path-85" fill="#947368"></path>
            <path d="M149.472436,44.3083333 C152.501242,44.3083333 154.231989,44.525 154.664675,44.9583333 C155.097362,45.3916667 153.799302,51.2416667 150.770496,62.5083333 L154.664675,63.1583333 C161.587661,48.425 164.400124,39.975 163.102064,37.8083333 C161.804004,35.6416667 158.126168,34.775 152.068556,35.2083333 L149.472436,44.3083333 Z" id="Path-86" fill="#947368"></path>
            <path d="M144.280196,16.25 C146.443629,15.2614841 148.174376,14.9838928 149.472436,15.4172262 C151.419526,16.0672262 160.505945,19.9672262 161.804004,20.6172262 C163.102064,21.2672262 165.218816,21.845932 166.347214,22.75 C167.475612,23.654068 168.213198,25.0069393 169.592364,24.7 C170.511807,24.4953738 170.728151,23.8453738 170.241394,22.75 C169.723459,21.5979798 169.074429,20.6703886 168.294304,19.9672262 C167.124115,18.9124826 165.049154,18.6672262 163.751094,18.0172262 C162.453034,17.3672262 153.674415,11.1516785 151.419526,10.2172262 C149.916266,9.59425794 147.752833,9.22184922 144.929226,9.1 L144.280196,16.25 Z" id="Path-87" fill="#947368"></path>
            <path d="M104.823451,32.5 C99.631212,36.8333333 96.3860624,39.65 95.0880025,40.95 C93.7899426,42.25 90.9774796,45.5 86.6506134,50.7 C83.0624752,51.6580367 80.8357194,52.5703883 79.9703462,53.437055 C78.6722863,54.737055 77.7151361,56.0209466 78.2132243,57.85 C78.7113126,59.6790534 80.1603141,61.2209466 81.458374,60.45 C82.7564338,59.6790534 86.8718343,56.2069288 87.7587053,55.387055 C88.6455764,54.5671812 89.2467331,53.3 89.8957631,52.65 C90.544793,52 103.340965,43.0596231 106.121511,40.95 C107.975209,39.5435846 109.705955,38.026918 111.313751,36.4 L104.823451,32.5 Z" id="Path-88" fill="#947368"></path>
            <path d="M114.10097,20.0212871 L104.040341,32.1620591 L113.12676,37.7 L116.371909,30.55 C118.163419,33.2813481 119.245135,35.3353678 119.617059,36.7120591 C119.988983,38.0887503 119.772639,40.255417 118.968029,43.2120591 L143.631166,36.0620591 C141.467733,26.3206864 140.386017,21.0166667 140.386017,20.15 C140.386017,19.2833333 142.333107,18.2 146.227286,16.9 L147.525346,9.1 C140.169673,9.74137271 135.626464,10.174706 133.895717,10.4 C132.164971,10.625294 129.785195,11.5959803 126.756388,13.3120591 C126.921727,13.3120591 127.13807,13.7453924 127.405418,14.6120591 C127.806441,15.9120591 127.806441,19.1109779 126.756388,19.8120591 C124.809298,21.1120591 122.862209,21.45 121.564149,20.8 C120.266089,20.15 120.072431,18.4091814 118.318999,17.55 C117.686623,17.2401357 116.496956,17.8472314 114.75,19.3712871 L114.10097,20.0212871 Z" id="Path-41" fill="#FF8D71"></path>
            <path d="M126.9,12.6138614 C129.84412,18.626354 132.46912,23.2814696 134.775,26.5792079 C137.08088,29.8769463 139.70588,31.6789265 142.65,31.9851485 L141.75,27.480198 C140.55,27.179868 139.05,25.8283828 137.25,23.4257426 C135.45,21.0231023 133.35,16.9686469 130.95,11.2623762 L126.9,12.6138614 Z" id="Path-3" fill="#1A2634"></path>
            <path d="M115.2,18.019802 C116.652754,21.1555206 117.552754,23.7083259 117.9,25.6782178 C118.247246,27.6481098 118.247246,30.200915 117.9,33.3366337 L119.7,37.8415842 C120.833177,33.3119893 121.283177,29.2575338 121.05,25.6782178 C120.816823,22.0989018 119.766823,19.0956015 117.9,16.6683168 L115.2,18.019802 Z" id="Path-4" fill="#1A2634"></path>
            <path d="M118.968029,42.5673423 L117.020939,57.5044014 L128.054448,59.4544014 C130.217881,51.6630287 132.164971,47.334009 133.895717,46.4673423 C135.626464,45.6006757 140.60236,46.0296954 148.823406,47.7544014 L153.366615,35.1 L143.631166,35.4173423 L118.968029,42.5673423 Z" id="Path-42" fill="#1A2634"></path>
            <path d="M124.443603,16.4162672 L122.697248,14.7136562 C120.921647,16.8546033 119.839931,18.1141287 119.452099,18.4922325 C119.064268,18.8703364 117.900278,18.4917242 115.960131,17.356396 C115.161332,18.0170601 114.637309,18.1348449 114.388061,17.7097505 C114.01419,17.0721089 114.749644,16.5426245 113.631471,14.5189017 C112.513298,12.4951788 110.475914,12.4402675 110.475543,11.3055748 C110.475172,10.1708821 113.965284,5.63325491 115.12915,5.63363617 C116.293016,5.63401743 118.621861,9.03885816 119.203794,9.03904879 C119.785727,9.03923942 119.784613,5.63516121 120.366546,5.63535184 C120.948479,5.63554247 122.552525,7.9864935 123.859443,9.60792019 C124.730722,10.6888713 125.700919,11.6347663 126.770036,12.4456052 L127.353268,16.4172204 L124.443603,16.4162672 Z" id="Path-43" fill="#947368" transform="translate(118.914405, 12.133781) rotate(13.000000) translate(-118.914405, -12.133781) "></path>
            <path d="M112.236721,12.2049709 C111.639574,12.5582213 110.642301,12.5578946 109.244902,12.2039908 C109.840756,11.7808515 109.840631,11.3972456 109.244525,11.0531729 C108.64842,10.7091002 107.651084,10.5169706 106.252518,10.4767839 C107.923849,9.24090126 109.041237,8.31043108 109.604682,7.68537334 C112.261535,4.73799349 113.528076,3.01774953 114.858254,2.46990479 C117.488232,1.38672659 121.541662,2.83482353 122.738766,3.98603349 C123.93587,5.13724345 125.136528,6.06665881 125.731715,7.43946735 C126.128506,8.35467304 126.014198,9.61047186 125.388789,11.2068638 C124.062427,9.08117779 123.031401,8.01821429 122.295712,8.01797329 C121.192179,8.0176118 122.585598,10.8951128 121.099926,10.8946261 C119.614254,10.8941394 118.401772,7.68558049 116.910438,8.01620919 C115.419104,8.34683788 113.132441,11.6750952 112.236721,12.2049709 Z" id="Path-44" fill="#22180B" transform="translate(116.107634, 7.278798) rotate(13.000000) translate(-116.107634, -7.278798) "></path>
            <path d="M56.0121259,77.323969 C58.6082456,76.8906357 61.6370519,75.5906357 65.0985449,73.423969 C70.2907843,70.173969 81.5033703,59.9644604 82.622353,59.123969 C83.7413358,58.2834776 85.0769224,58.1074929 85.8675027,56.523969 C86.6580829,54.9404452 87.6690312,53.9430789 86.5165326,52.623969 C85.364034,51.3048591 83.545964,52.3468892 81.3242932,53.273969 C79.1026223,54.2010488 78.7281734,55.873969 78.0791435,57.173969 C77.4301136,58.473969 71.5888442,63.673969 68.9927245,64.973969 C67.261978,65.8406357 63.1514551,68.0073023 56.6611558,71.473969 L56.0121259,77.323969 Z" id="Path-82" fill="#D2A798"></path>
            <path d="M28.7528688,74.75 C30.0509287,74.75 34.2609239,75.5536873 36.541228,75.4 C40.7707504,75.1149397 43.8541276,73.701026 44.9786171,73.1379409 C46.7093635,72.2712743 50.8198864,71.725294 57.3101857,71.5 L56.6611558,79.3 C51.901603,80.825294 49.08914,82.2379409 48.2237667,83.5379409 C47.3583935,84.8379409 44.3295871,92.3086273 39.1373477,105.95 L15.1232403,109.2 C18.5847332,96.425294 20.3154797,89.9296076 20.3154797,89.7129409 C20.3154797,89.4962743 18.5847332,89.925294 15.1232403,91 L11.8780906,84.55896 C16.2049568,80.18632 19.0174199,77.7833333 20.3154797,77.35 C22.2625695,76.7 27.4548089,74.75 28.7528688,74.75 Z" id="Path-45" fill="#54DEEA"></path>
            <path d="M17.3550071,108.55 C16.0038301,115.931624 15.1384568,121.998291 14.7588874,126.75 C14.379318,131.501709 14.379318,136.268376 14.7588874,141.05 L28.3885159,139.1 C29.4330683,128.869258 30.7311282,123.235924 32.2826955,122.2 C34.2297853,120.9 36.2516858,120.154198 40.7200846,119.6 C42.3996676,119.391688 45.4284739,119.391688 49.8065036,119.6 L62.7871022,111.15 C60.1429436,108.976072 58.3173048,107.721757 57.3101857,107.387055 C54.1869883,106.349104 52.1179463,106.349104 49.8065036,106.087055 C48.3988851,105.927473 45.1537355,105.665121 40.0710547,105.3 L17.3550071,108.55 Z" id="Path-46" fill="#1A2634"></path>
            <path d="M47.8382074,133.9 L53.0304469,133.9 C53.2955119,135.465461 53.9445418,136.765461 54.9775367,137.8 C56.0105315,138.834539 57.5249347,139.701205 59.5207462,140.4 C60.818806,142.133333 60.3861194,143 58.2226863,143 C54.9775367,143 48.4872374,143.65 45.8911176,141.7 C44.5382315,140.683819 43.9440279,139.583473 44.5930578,137.8 C44.810273,137.203113 45.8919895,135.903113 47.8382074,133.9 Z" id="Path-80" fill="#1A2634"></path>
            <path d="M13.3050953,84.5 C8.54554246,87.5333333 5.73307943,89.7 4.86770619,91 C3.56964633,92.95 1.62262745,102.482884 0.973526608,106.6 C0.324425763,110.717116 -0.391843734,111.973325 0.973526608,115.05 C2.33889695,118.126675 3.58081396,118.165526 4.86770619,117.65 C6.15459842,117.134474 6.34358365,116.127417 6.16576605,113.1 C5.98794845,110.072583 4.86770619,110.5 4.86770619,107.25 C4.86770619,104 7.46382591,96.2 8.76188577,94.9 C9.62725901,94.0333333 12.0070354,92.5166667 15.901215,90.35 L13.3050953,84.5 Z" id="Path-81" fill="#D2A798"></path>
            <path d="M40.2752556,63.7 C41.6076571,65.4627986 42.7427576,66.5918169 43.6805572,67.087055 C45.0872566,67.8299121 43.3832021,68.5285714 43.0315273,68.9 C42.6798524,69.2714286 43.734877,71.5441979 43.0315273,72.287055 C42.5626275,72.7822931 40.4716207,73.3866081 36.7585071,74.1 C34.8829079,69.6428571 33.9451082,67.1666667 33.9451082,66.6714286 C33.9451082,66.1761905 36.0551574,65.1857143 40.2752556,63.7 Z" id="Path-84" fill="#D2A798"></path>
            <path d="M112.80561,85.8 C112.59151,85.8 112.158823,87.1 111.50755,89.7 C107.88,93.4905795 107.014627,95.6572462 108.91143,96.2 C111.756635,97.0141308 117.94381,92.4168958 119.295909,91.0627763 C120.648008,89.7086567 117.806026,88.6768359 117.348819,87.75 C116.891612,86.8231641 117.020939,85.8 116.699789,85.8 C116.378639,85.8 113.12676,85.8 112.80561,85.8 Z" id="Path-89" fill="#1A2634"></path>
            <path d="M150.964523,62.4 C150.315494,62.4 149.119366,65.0697883 148.368404,66.95 C147.617441,68.8302117 149.119366,71.5 151.613553,71.5 C154.107741,71.5 155.507733,71.5 159.401913,71.5 C163.296092,71.5 163.849026,71.2786647 164.854277,70.2 C165.859528,69.1213353 165.341188,68.2291686 163.945122,67.6 C162.549056,66.9708314 160.960097,67.2626569 159.662038,66.95 C159.124712,66.8205771 158.103853,66.8205771 156.818331,65.65 C156.387162,65.2573845 155.820661,64.3907178 155.118828,63.05 C152.781978,62.6166667 151.39721,62.4 150.964523,62.4 Z" id="Path-90" fill="#1A2634"></path>
            <path d="M30.5229504,72.8619486 C28.4775228,71.3742502 27.4548089,69.3694716 27.4548089,66.8476127 C27.4548089,63.0648242 28.1628416,60.9264817 30.2869395,59.5300036 C32.4110375,58.1335254 34.0631137,58.5619486 35.479179,58.5619486 C36.6014054,58.5619486 37.7236318,59.0004778 39.1982655,59.5300036 C39.5843772,59.6686523 39.0193422,59.5954059 41.1434402,60.293645 C42.5595055,60.7591377 43.2675382,60.9918841 43.2675382,60.9918841 L41.1434402,64.8461004 C38.7663816,65.1698553 37.5550433,65.3352518 37.5094252,65.3422901 C36.6121758,65.4807237 37.6032769,67.2760359 36.8952443,67.974275 C36.6964487,68.1703208 34.9268431,67.7389817 34.7711463,67.974275 C34.4065748,68.5252254 36.1872116,71.4654704 36.1872116,72.1637095 C36.1872116,72.6292022 34.2991246,72.8619486 30.5229504,72.8619486 Z" id="Path-83" fill="#523C36"></path>
            <path d="M36,78.3861386 L38.7,74.7821782 L42.75,73.8811881 L37.8,82.8910891 C33.9,91.30033 32.25,95.9554455 32.85,96.8564356 C33.45,97.7574257 36.6,98.3580858 42.3,98.6584158 L40.95,102.262376 C33.75,101.661716 30,100.910891 29.7,100.009901 C29.4,99.1089109 30.3,94.0033003 32.4,84.6930693 L36,78.3861386 Z" id="Path-8" fill="#1A2634"></path>
            <path d="M16.2,95.5049505 L31.95,75.2326733 C35.5069273,75.8947732 37.6069273,76.6455983 38.25,77.4851485 C39.2146091,78.7444739 38.059332,85.4744196 37.0947229,88.2970297 C35.6478093,92.5309449 31.05,100.009901 29.25,100.460396 C27.45,100.910891 19.35,100.460396 18,100.009901 C16.6281747,99.5521228 16.2,97.3069307 16.2,95.5049505 Z" id="Path-7" fill="#1A2634"></path>
            <path d="M34.8680581,75.882887 C37.8,77.0346535 30.6,95.5049505 28.9310956,96.736698 C27.2621912,97.9684454 18.9607203,97.2836962 16.65,96.736698 C14.3392797,96.1896997 22.5,77.0346535 24.75,75.2326733 C27,73.4306931 31.9361161,74.7311205 34.8680581,75.882887 Z" id="Path-6" fill="#414D5C"></path>
        </g>
    </g>
</svg>
