<?xml version="1.0" encoding="UTF-8"?>
<svg width="1000px" height="680px" viewBox="0 0 1000 680" version="1.1" xmlns="http://www.w3.org/2000/svg" xmlns:xlink="http://www.w3.org/1999/xlink">
    <!-- Generator: Sketch 52.6 (67491) - http://www.bohemiancoding.com/sketch -->
    <title>Samlingslån Copy 5</title>
    <desc>Created with Sketch.</desc>
    <defs>
        <linearGradient x1="88.2443112%" y1="55.3321538%" x2="12.3097788%" y2="91.0571273%" id="linearGradient-1">
            <stop stop-color="#1FAFDD" offset="0%"></stop>
            <stop stop-color="#B7EAF7" offset="100%"></stop>
        </linearGradient>
        <path d="M0,88 C3.66964368,79.1497567 22.0127645,61.7471826 45.2922856,66.4623334 C70.7032458,71.6114904 76.287043,60.381266 86.7626363,55.7117565 C105.94304,47.1627451 120.746506,75.3681759 127.375951,57.4718471 C135.840536,34.6238632 149.58115,23.3297411 191.482249,45.8042971 C201.4347,51.1426576 200.752257,39.3157784 205.28276,32.4090203 C214.080602,18.9979765 224.734612,43.7529327 229.623222,42.3944847 C235.173885,40.8509823 233.479566,30.3136743 236.730568,21.2908243 C243.502746,2.49162959 255.190934,20.1597524 263.248347,18.6079517 C271.270715,17.0644493 275.565453,-3.62595068 284.648761,0.557272616 C304.054734,9.4921596 297.963724,62.0177105 296.763874,73.7350509 C302.282676,63.7363091 312,56.393885 312,88 L0,88" id="path-2"></path>
        <linearGradient x1="59.7292915%" y1="107.912713%" x2="33.318513%" y2="-2.07974657%" id="linearGradient-4">
            <stop stop-color="#228C60" offset="0%"></stop>
            <stop stop-color="#4DD096" offset="100%"></stop>
        </linearGradient>
        <linearGradient x1="71.2643499%" y1="-13.8260698%" x2="50%" y2="100%" id="linearGradient-5">
            <stop stop-color="#54C1D3" offset="0%"></stop>
            <stop stop-color="#2A8EA7" offset="100%"></stop>
        </linearGradient>
        <linearGradient x1="64.7040556%" y1="-126.312953%" x2="50%" y2="100%" id="linearGradient-6">
            <stop stop-color="#54C1D3" offset="0%"></stop>
            <stop stop-color="#2A8EA7" offset="100%"></stop>
        </linearGradient>
        <linearGradient x1="50%" y1="0%" x2="50%" y2="100%" id="linearGradient-7">
            <stop stop-color="#8DF1F6" offset="0%"></stop>
            <stop stop-color="#54DEEA" offset="100%"></stop>
        </linearGradient>
        <linearGradient x1="50%" y1="100%" x2="50%" y2="-64.7926366%" id="linearGradient-8">
            <stop stop-color="#5E5DA7" offset="0%"></stop>
            <stop stop-color="#FFFFFF" offset="100%"></stop>
        </linearGradient>
        <linearGradient x1="70.8518608%" y1="-36.3255202%" x2="65.2749235%" y2="50%" id="linearGradient-9">
            <stop stop-color="#43427E" offset="0%"></stop>
            <stop stop-color="#201F47" offset="100%"></stop>
        </linearGradient>
        <path d="M236.626477,49.5229256 C232.591356,39.4292437 212.443198,19.5816483 186.878279,24.9592668 C158.961826,30.8318684 152.83137,18.0238236 141.320751,12.6982589 C120.2576,2.9481312 109.881573,27.1388964 96.7148163,14.7056381 C78.3234463,-2.6537913 63.4273516,-4.42456288 51.5507356,11.5729529 C34.4769563,34.5768942 6.48730414,9.10371558 0.201298577,49.5229256 L236.626477,49.5229256" id="path-10"></path>
        <linearGradient x1="50.0610581%" y1="107.335082%" x2="48.3913077%" y2="-93.8539499%" id="linearGradient-12">
            <stop stop-color="#1C805A" offset="0%"></stop>
            <stop stop-color="#75FDC1" offset="100%"></stop>
        </linearGradient>
        <path d="M106.715696,51.4157867 L0.219598448,51.4157867 C0.823494179,17.7067694 9.39698357,39.3459578 9.39698357,39.3459578 C9.39698357,39.3459578 12.2151636,14.7113167 18.4462696,13.7128324 C24.329678,12.7692411 27.1021084,37.8818297 27.1021084,37.8818297 C27.1021084,37.8818297 33.4979132,2.00264707 41.9616034,0.618965588 C49.3913508,-0.594358393 43.5536921,33.8689641 43.5536921,33.8689641 C43.5536921,33.8689641 47.9090613,30.3274209 54.1676171,30.0614739 C61.1307179,29.7661876 58.285088,36.7650416 58.285088,36.7650416 C58.285088,36.7650416 66.9866765,21.181116 72.705386,21.4745095 C79.8697854,21.8417245 74.9379703,37.6395435 74.9379703,37.6395435 C74.9379703,37.6395435 80.208333,32.4370147 85.7348939,31.703531 C96.5501175,30.2696887 85.0669487,44.5825581 85.0669487,44.5825581 C85.0669487,44.5825581 92.7437444,41.3325155 105.974551,39.267404 C118.88511,37.2505605 116.204179,44.8712194 106.715696,51.4157867" id="path-13"></path>
        <path d="M2.84928986,56.1479395 L138.019454,56.1479395 C145.04386,27.3338611 117.454975,41.7413735 117.454975,41.7413735 C117.454975,41.7413735 127.853876,11.4328812 117.196032,14.5797628 C106.904184,17.6168585 102.389606,41.2255689 102.389606,41.2255689 C102.389606,41.2255689 96.8447454,2.66988062 84.6863113,0.142911015 C76.7935771,-1.49819958 82.9871684,36.801006 82.9871684,36.801006 C82.9871684,36.801006 78.3298513,32.7095867 71.6284387,32.6045329 C65.9975685,32.5165148 67.3609088,39.9952091 67.3609088,39.9952091 C67.3609088,39.9952091 55.6160518,15.1286925 49.5002351,15.4523718 C41.8307593,15.8574441 50.0556362,41.9808205 50.0556362,41.9808205 C50.0556362,41.9808205 34.9545829,24.9961776 29.005295,25.4419464 C20.7374134,26.0599655 35.1513065,50.315088 35.1513065,50.315088 C35.1513065,50.315088 24.1988339,43.5102522 11.1674961,44.6336653 C1.76502252,45.4438099 -1.84279697,49.3658181 2.84928986,56.1479395" id="path-15"></path>
        <linearGradient x1="97.8075118%" y1="127.081248%" x2="31.2342438%" y2="48.0747459%" id="linearGradient-17">
            <stop stop-color="#51D59B" offset="0%"></stop>
            <stop stop-color="#97E8C7" offset="100%"></stop>
        </linearGradient>
        <path d="M118.137006,40.0267153 C115.625192,35.8350714 110.532029,31.8361808 104.086902,30.862035 C93.3400055,29.2392001 97.0281579,16.9333816 87.6869889,13.6765914 C77.8368621,10.2411336 77.006759,18.4316682 51.8162119,3.66453768 C44.7739555,-0.464832111 31.713093,-1.75998634 25.9145575,6.08581627 C22.5203104,10.6777941 21.6887736,17.3559562 22.6859009,22.916149 C23.6443187,28.2672784 27.5174164,35.9907568 23.3088366,40.7992115 C19.3117253,45.3659831 12.2816551,43.9210743 7.41358065,46.8205295 C2.46737039,49.7659489 0.560570496,55.7205446 0.485302079,61.3289257 C0.308958931,74.4287397 5.74405548,88.553112 13.793475,98.5481144 C30.5697299,119.377338 60.7989599,124.357046 84.6698007,115.386602 C98.7758188,110.086626 109.812319,99.2924389 116.253145,85.3200452 C122.383579,72.023771 126.121193,53.3630229 118.137006,40.0267153" id="path-18"></path>
        <linearGradient x1="69.3417021%" y1="96.7960511%" x2="32.3900053%" y2="9.83646204%" id="linearGradient-20">
            <stop stop-color="#187A56" offset="0%"></stop>
            <stop stop-color="#64F2B2" offset="100%"></stop>
        </linearGradient>
        <path d="M80.6967844,12.7464845 C75.3808181,13.0061639 69.8405766,14.2261391 51.7917997,3.65400701 C44.7568681,-0.463131887 31.7030503,-1.75413052 25.9019904,6.07472192 C22.5142173,10.6572122 21.6801716,17.3200968 22.6790201,22.871021 C23.63416,28.2066555 27.5084598,35.9186152 23.295956,40.717135 C19.3005619,45.2722517 12.2742288,43.8288487 7.41039544,46.7252725 C2.4684599,49.666086 0.557463513,55.6032001 0.488676241,61.1985139 C0.305960051,74.2734817 5.74302064,88.3708908 13.7853991,98.3422831 C14.5585394,99.3018391 15.3574749,100.225883 16.1915206,101.112936 C46.4765499,118.124525 24.5463079,66.2567131 34.6558872,56.8401913 C41.0574027,50.8771833 53.5731034,59.3245314 59.2444707,55.1371089 C62.0754968,53.0478366 61.8497886,48.9129418 59.6435801,45.7657165 C52.8343568,36.0710196 41.8907318,25.749689 47.3019972,19.8843382 C50.1939287,16.7459908 55.9527131,18.467569 66.8003225,18.5038205 C79.3332201,18.540072 85.7949244,15.2034509 80.6967844,12.7464845" id="path-21"></path>
        <linearGradient x1="73.139965%" y1="82.0872418%" x2="35.959181%" y2="6.186227%" id="linearGradient-23">
            <stop stop-color="#82DCB7" offset="0%"></stop>
            <stop stop-color="#B8FADF" offset="100%"></stop>
        </linearGradient>
        <path d="M78.3048644,19.8258691 C78.4765103,9.42793327 69.2370561,6.15791974 60.2771396,9.06056017 C53.4995782,11.2564494 52.9503113,12.2107354 35.7857203,2.42770755 C30.9894431,-0.307945101 22.0589516,-1.16596758 18.0522456,4.03177247 C15.7080529,7.0738968 15.1097443,11.4980905 15.7619988,15.1816444 C16.3946365,18.7266966 19.0085585,23.8433985 16.1052906,27.0289358 C13.3491477,30.0543614 8.54306217,29.0971285 5.198419,31.0179791 C1.79982998,32.9692803 0.470800212,36.9141209 0.39233351,40.6295989 C0.205975093,49.3080517 3.49176824,58.9854844 9.31792086,65.2868172 C21.0585011,77.9936045 41.7001479,82.9035362 60.7724607,78.0432097 C102.825709,67.327506 87.0097641,44.7011537 82.0810744,38.7023635 C76.7747637,32.2527063 78.1871643,26.9950471 78.3048644,19.8258691" id="path-24"></path>
        <linearGradient x1="73.7184679%" y1="97.5871956%" x2="27.6842769%" y2="11.7141475%" id="linearGradient-26">
            <stop stop-color="#106E4D" offset="0%"></stop>
            <stop stop-color="#5CECAC" offset="100%"></stop>
        </linearGradient>
        <linearGradient x1="73.5739352%" y1="72.1546705%" x2="26.4073264%" y2="15.6901746%" id="linearGradient-27">
            <stop stop-color="#83EFC0" offset="0%"></stop>
            <stop stop-color="#BDFBE3" offset="100%"></stop>
        </linearGradient>
    </defs>
    <g id="Samlingslån-Copy-5" stroke="none" stroke-width="1" fill="none" fill-rule="evenodd">
        <rect fill="#F5FDFF" x="0" y="0" width="1000" height="680"></rect>
        <path d="M361.386777,605.906437 C423.109369,595.893962 470.503502,601.846593 514.591067,587.883982 C558.678632,573.921371 558.322989,545.831587 585.131172,523.804142 C611.939355,501.776697 640.944834,484.938026 711.882923,480.750499 C782.821011,476.562973 858.474078,489.761727 905.868211,523.804142 C953.262344,557.846557 951.788886,580.324019 967.061935,597.400081 C977.243969,608.784122 1005.22332,624.984095 1051,646 L1051,681 L217,681 C272.109457,637.612608 320.238383,612.581421 361.386777,605.906437 Z" id="Path-10-Copy" fill-opacity="0.37" fill="url(#linearGradient-1)" fill-rule="nonzero"></path>
        <g id="Group-12" transform="translate(487.000000, 593.000000)">
            <mask id="mask-3" fill="white">
                <use xlink:href="#path-2"></use>
            </mask>
            <g id="Clip-11"></g>
            <path d="M0,88 C3.66964368,79.1497567 22.0127645,61.7471826 45.2922856,66.4623334 C70.7032458,71.6114904 76.287043,60.381266 86.7626363,55.7117565 C105.94304,47.1627451 120.746506,75.3681759 127.375951,57.4718471 C135.840536,34.6238632 149.58115,23.3297411 191.482249,45.8042971 C201.4347,51.1426576 200.752257,39.3157784 205.28276,32.4090203 C214.080602,18.9979765 224.734612,43.7529327 229.623222,42.3944847 C235.173885,40.8509823 233.479566,30.3136743 236.730568,21.2908243 C243.502746,2.49162959 255.190934,20.1597524 263.248347,18.6079517 C271.270715,17.0644493 275.565453,-3.62595068 284.648761,0.557272616 C304.054734,9.4921596 297.963724,62.0177105 296.763874,73.7350509 C302.282676,63.7363091 312,56.393885 312,88 L0,88" id="Fill-10" fill="url(#linearGradient-4)" mask="url(#mask-3)"></path>
        </g>
        <g id="Group-4-Copy" transform="translate(755.000000, 418.000000)" fill-rule="nonzero">
            <rect id="Rectangle-Copy-2" fill="#026A80" x="95" y="43" width="42" height="220"></rect>
            <rect id="Rectangle" fill="url(#linearGradient-5)" x="0" y="43" width="62" height="220"></rect>
            <rect id="Rectangle-Copy" fill="#3F9FBE" transform="translate(78.500000, 153.000000) scale(-1, 1) translate(-78.500000, -153.000000) " x="62" y="43" width="33" height="220"></rect>
            <g id="Group" transform="translate(11.000000, 0.000000)">
                <rect id="Rectangle-Copy-13" fill="#7685A0" x="61.6216216" y="62.6086957" width="11.7081081" height="11.6624041"></rect>
                <rect id="Rectangle-Copy-14" fill="#7685A0" x="61.6216216" y="95.7544757" width="11.7081081" height="11.6624041"></rect>
                <rect id="Rectangle-Copy-16" fill="#7685A0" x="61.6216216" y="128.900256" width="11.7081081" height="11.6624041"></rect>
                <rect id="Rectangle-Copy-15" fill="#7685A0" x="61.6216216" y="162.046036" width="11.7081081" height="11.6624041"></rect>
                <rect id="Rectangle-Copy-20" fill="#7685A0" x="61.6216216" y="195.191816" width="11.7081081" height="11.6624041"></rect>
                <rect id="Rectangle-Copy-18" fill="#7685A0" x="61.6216216" y="228.337596" width="11.7081081" height="11.6624041"></rect>
                <rect id="Rectangle" fill="#2E3E5C" x="0.616216216" y="62.6086957" width="41.2864865" height="11.6624041"></rect>
                <rect id="Rectangle-Copy-21" fill="#CDEFFF" x="2.61621622" y="63.6086957" width="39.2864865" height="10.6624041"></rect>
                <rect id="Rectangle-Copy-5" fill="#2E3E5C" x="0" y="95.7544757" width="41.2864865" height="11.6624041"></rect>
                <rect id="Rectangle-Copy-22" fill="#CDEFFF" x="2" y="96.7544757" width="39.2864865" height="10.6624041"></rect>
                <rect id="Rectangle-Copy-7" fill="#2E3E5C" x="0.616216216" y="128.900256" width="41.2864865" height="11.6624041"></rect>
                <rect id="Rectangle-Copy-23" fill="#CDEFFF" x="1.61621622" y="129.900256" width="40.2864865" height="10.6624041"></rect>
                <rect id="Rectangle-Copy-8" fill="#2E3E5C" x="0.616216216" y="162.046036" width="41.2864865" height="11.6624041"></rect>
                <rect id="Rectangle-Copy-27" fill="#CDEFFF" x="1.61621622" y="163.046036" width="40.2864865" height="10.6624041"></rect>
                <rect id="Rectangle-Copy-9" fill="#2E3E5C" x="0.616216216" y="195.191816" width="41.2864865" height="11.6624041"></rect>
                <rect id="Rectangle-Copy-31" fill="#CDEFFF" x="2.61621622" y="196.191816" width="39.2864865" height="10.6624041"></rect>
                <rect id="Rectangle-Copy-11" fill="#2E3E5C" x="0.616216216" y="228.337596" width="41.2864865" height="11.6624041"></rect>
                <rect id="Rectangle-Copy-100" fill="#CDEFFF" x="1.61621622" y="229.337596" width="40.2864865" height="10.6624041"></rect>
                <rect id="Rectangle-Copy-30" fill="#2E3E5C" x="93.0486486" y="62.6086957" width="20.9513514" height="11.6624041"></rect>
                <rect id="Rectangle-Copy-29" fill="#2E3E5C" x="93.0486486" y="95.7544757" width="20.9513514" height="11.6624041"></rect>
                <rect id="Rectangle-Copy-28" fill="#2E3E5C" x="93.0486486" y="128.900256" width="20.9513514" height="11.6624041"></rect>
                <rect id="Rectangle-Copy-26" fill="#2E3E5C" x="93.0486486" y="162.046036" width="20.9513514" height="11.6624041"></rect>
                <rect id="Rectangle-Copy-25" fill="#2E3E5C" x="93.0486486" y="195.191816" width="20.9513514" height="11.6624041"></rect>
                <rect id="Rectangle-Copy-24" fill="#2E3E5C" x="93.0486486" y="228.337596" width="20.9513514" height="11.6624041"></rect>
                <rect id="Rectangle" fill="#026A80" x="71.4810811" y="21.483376" width="42.5189189" height="22.0971867"></rect>
                <rect id="Rectangle" fill="#014958" x="72.0972973" y="9.82097187" width="6.16216216" height="12.2762148"></rect>
                <rect id="Rectangle-Copy-3" fill="#014958" x="82.572973" y="0" width="6.16216216" height="22.0971867"></rect>
                <rect id="Rectangle" fill="url(#linearGradient-6)" x="9.85945946" y="21.483376" width="62.2378378" height="22.0971867"></rect>
            </g>
        </g>
        <g id="Group-6-Copy" transform="translate(654.000000, 496.000000)" fill-rule="nonzero">
            <rect id="Rectangle-Copy-32" fill="#3EABB5" transform="translate(51.000000, 96.500000) scale(-1, 1) translate(-51.000000, -96.500000) " x="26" y="0" width="50" height="193"></rect>
            <rect id="Rectangle" fill="url(#linearGradient-7)" x="0" y="0" width="26" height="193"></rect>
            <g id="Group-2" transform="translate(5.000000, 10.000000)">
                <rect id="Rectangle" fill="#656565" x="26.6538462" y="0" width="5.45192308" height="11.7480916"></rect>
                <rect id="Rectangle-Copy-33" fill="#656565" x="36.9519231" y="0" width="5.45192308" height="11.7480916"></rect>
                <rect id="Rectangle-Copy-73" fill="#BFBFBF" x="0" y="0" width="5.45192308" height="11.7480916"></rect>
                <rect id="Rectangle-Copy-72" fill="#BFBFBF" x="9.69230769" y="0" width="5.45192308" height="11.7480916"></rect>
                <rect id="Rectangle-Copy-75" fill="#BFBFBF" x="0" y="16.6946565" width="5.45192308" height="11.7480916"></rect>
                <rect id="Rectangle-Copy-74" fill="#BFBFBF" x="9.69230769" y="16.6946565" width="5.45192308" height="11.7480916"></rect>
                <rect id="Rectangle-Copy-77" fill="#BFBFBF" x="0" y="33.389313" width="5.45192308" height="11.7480916"></rect>
                <rect id="Rectangle-Copy-76" fill="#BFBFBF" x="9.69230769" y="33.389313" width="5.45192308" height="11.7480916"></rect>
                <rect id="Rectangle-Copy-79" fill="#BFBFBF" x="0" y="50.0839695" width="5.45192308" height="11.7480916"></rect>
                <rect id="Rectangle-Copy-78" fill="#BFBFBF" x="9.69230769" y="50.0839695" width="5.45192308" height="11.7480916"></rect>
                <rect id="Rectangle-Copy-81" fill="#BFBFBF" x="0" y="66.778626" width="5.45192308" height="11.7480916"></rect>
                <rect id="Rectangle-Copy-80" fill="#BFBFBF" x="9.69230769" y="66.778626" width="5.45192308" height="11.7480916"></rect>
                <rect id="Rectangle-Copy-83" fill="#BFBFBF" x="0" y="83.4732824" width="5.45192308" height="11.7480916"></rect>
                <rect id="Rectangle-Copy-82" fill="#BFBFBF" x="9.69230769" y="83.4732824" width="5.45192308" height="11.7480916"></rect>
                <rect id="Rectangle-Copy-85" fill="#BFBFBF" x="0" y="100.167939" width="5.45192308" height="11.7480916"></rect>
                <rect id="Rectangle-Copy-84" fill="#BFBFBF" x="9.69230769" y="100.167939" width="5.45192308" height="11.7480916"></rect>
                <rect id="Rectangle-Copy-87" fill="#BFBFBF" x="0" y="116.862595" width="5.45192308" height="11.7480916"></rect>
                <rect id="Rectangle-Copy-86" fill="#BFBFBF" x="9.69230769" y="116.862595" width="5.45192308" height="11.7480916"></rect>
                <rect id="Rectangle-Copy-89" fill="#BFBFBF" x="0" y="133.557252" width="5.45192308" height="11.7480916"></rect>
                <rect id="Rectangle-Copy-88" fill="#BFBFBF" x="9.69230769" y="133.557252" width="5.45192308" height="11.7480916"></rect>
                <rect id="Rectangle-Copy-91" fill="#BFBFBF" x="0" y="150.251908" width="5.45192308" height="11.7480916"></rect>
                <rect id="Rectangle-Copy-90" fill="#BFBFBF" x="9.69230769" y="150.251908" width="5.45192308" height="11.7480916"></rect>
                <rect id="Rectangle-Copy-34" fill="#656565" x="47.25" y="0" width="5.45192308" height="11.7480916"></rect>
                <rect id="Rectangle-Copy-35" fill="#656565" x="57.5480769" y="0" width="5.45192308" height="11.7480916"></rect>
                <rect id="Rectangle-Copy-39" fill="#656565" x="26.6538462" y="16.6946565" width="5.45192308" height="11.7480916"></rect>
                <rect id="Rectangle-Copy-38" fill="#656565" x="36.9519231" y="16.6946565" width="5.45192308" height="11.7480916"></rect>
                <rect id="Rectangle-Copy-37" fill="#656565" x="47.25" y="16.6946565" width="5.45192308" height="11.7480916"></rect>
                <rect id="Rectangle-Copy-36" fill="#656565" x="57.5480769" y="16.6946565" width="5.45192308" height="11.7480916"></rect>
                <rect id="Rectangle-Copy-43" fill="#656565" x="26.6538462" y="33.389313" width="5.45192308" height="11.7480916"></rect>
                <rect id="Rectangle-Copy-42" fill="#656565" x="36.9519231" y="33.389313" width="5.45192308" height="11.7480916"></rect>
                <rect id="Rectangle-Copy-41" fill="#656565" x="47.25" y="33.389313" width="5.45192308" height="11.7480916"></rect>
                <rect id="Rectangle-Copy-40" fill="#656565" x="57.5480769" y="33.389313" width="5.45192308" height="11.7480916"></rect>
                <rect id="Rectangle-Copy-47" fill="#656565" x="26.6538462" y="50.0839695" width="5.45192308" height="11.7480916"></rect>
                <rect id="Rectangle-Copy-46" fill="#656565" x="36.9519231" y="50.0839695" width="5.45192308" height="11.7480916"></rect>
                <rect id="Rectangle-Copy-45" fill="#656565" x="47.25" y="50.0839695" width="5.45192308" height="11.7480916"></rect>
                <rect id="Rectangle-Copy-44" fill="#656565" x="57.5480769" y="50.0839695" width="5.45192308" height="11.7480916"></rect>
                <rect id="Rectangle-Copy-51" fill="#656565" x="26.6538462" y="66.778626" width="5.45192308" height="11.7480916"></rect>
                <rect id="Rectangle-Copy-50" fill="#656565" x="36.9519231" y="66.778626" width="5.45192308" height="11.7480916"></rect>
                <rect id="Rectangle-Copy-49" fill="#656565" x="47.25" y="66.778626" width="5.45192308" height="11.7480916"></rect>
                <rect id="Rectangle-Copy-48" fill="#656565" x="57.5480769" y="66.778626" width="5.45192308" height="11.7480916"></rect>
                <rect id="Rectangle-Copy-55" fill="#656565" x="26.6538462" y="83.4732824" width="5.45192308" height="11.7480916"></rect>
                <rect id="Rectangle-Copy-54" fill="#656565" x="36.9519231" y="83.4732824" width="5.45192308" height="11.7480916"></rect>
                <rect id="Rectangle-Copy-53" fill="#656565" x="47.25" y="83.4732824" width="5.45192308" height="11.7480916"></rect>
                <rect id="Rectangle-Copy-52" fill="#656565" x="57.5480769" y="83.4732824" width="5.45192308" height="11.7480916"></rect>
                <rect id="Rectangle-Copy-59" fill="#656565" x="26.6538462" y="100.167939" width="5.45192308" height="11.7480916"></rect>
                <rect id="Rectangle-Copy-58" fill="#656565" x="36.9519231" y="100.167939" width="5.45192308" height="11.7480916"></rect>
                <rect id="Rectangle-Copy-57" fill="#656565" x="47.25" y="100.167939" width="5.45192308" height="11.7480916"></rect>
                <rect id="Rectangle-Copy-56" fill="#656565" x="57.5480769" y="100.167939" width="5.45192308" height="11.7480916"></rect>
                <rect id="Rectangle-Copy-63" fill="#656565" x="26.6538462" y="116.862595" width="5.45192308" height="11.7480916"></rect>
                <rect id="Rectangle-Copy-62" fill="#656565" x="36.9519231" y="116.862595" width="5.45192308" height="11.7480916"></rect>
                <rect id="Rectangle-Copy-61" fill="#656565" x="47.25" y="116.862595" width="5.45192308" height="11.7480916"></rect>
                <rect id="Rectangle-Copy-60" fill="#656565" x="57.5480769" y="116.862595" width="5.45192308" height="11.7480916"></rect>
                <rect id="Rectangle-Copy-67" fill="#656565" x="26.6538462" y="133.557252" width="5.45192308" height="11.7480916"></rect>
                <rect id="Rectangle-Copy-66" fill="#656565" x="36.9519231" y="133.557252" width="5.45192308" height="11.7480916"></rect>
                <rect id="Rectangle-Copy-65" fill="#656565" x="47.25" y="133.557252" width="5.45192308" height="11.7480916"></rect>
                <rect id="Rectangle-Copy-64" fill="#656565" x="57.5480769" y="133.557252" width="5.45192308" height="11.7480916"></rect>
                <rect id="Rectangle-Copy-71" fill="#656565" x="26.6538462" y="150.251908" width="5.45192308" height="11.7480916"></rect>
                <rect id="Rectangle-Copy-70" fill="#656565" x="36.9519231" y="150.251908" width="5.45192308" height="11.7480916"></rect>
                <rect id="Rectangle-Copy-69" fill="#656565" x="47.25" y="150.251908" width="5.45192308" height="11.7480916"></rect>
                <rect id="Rectangle-Copy-68" fill="#656565" x="57.5480769" y="150.251908" width="5.45192308" height="11.7480916"></rect>
            </g>
        </g>
        <g id="Group-5-Copy" transform="translate(700.000000, 534.000000)" fill-rule="nonzero">
            <rect id="Rectangle" fill="url(#linearGradient-8)" x="0" y="0" width="53" height="147"></rect>
            <rect id="Rectangle-Copy-92" fill="#4C4B8C" x="52" y="0" width="35" height="147"></rect>
            <polygon id="Rectangle" fill="url(#linearGradient-9)" points="0 0 87 0 87 51 52.0774648 51"></polygon>
            <rect id="Rectangle" fill="#2E3E5C" x="11" y="62" width="31" height="12"></rect>
            <rect id="Rectangle-Copy-4" fill="#2E3E5C" x="11" y="39" width="6" height="9"></rect>
            <rect id="Rectangle-Copy-6" fill="#2E3E5C" x="23" y="39" width="6" height="9"></rect>
            <rect id="Rectangle-Copy-19" fill="#CDEFFF" x="13" y="40" width="4" height="8"></rect>
            <rect id="Rectangle-Copy-17" fill="#CDEFFF" x="25" y="40" width="4" height="8"></rect>
            <rect id="Rectangle-Copy-94" fill="#2E3E5C" x="61" y="63" width="15" height="10"></rect>
            <rect id="Rectangle-Copy-95" fill="#2E3E5C" x="61" y="84" width="15" height="10"></rect>
            <rect id="Rectangle-Copy-97" fill="#2E3E5C" x="61" y="104" width="15" height="10"></rect>
            <rect id="Rectangle-Copy-93" fill="#2E3E5C" x="11" y="83" width="31" height="12"></rect>
            <rect id="Rectangle-Copy-96" fill="#2E3E5C" x="11" y="103" width="31" height="12"></rect>
            <rect id="Rectangle-Copy-12" fill="#CDEFFF" x="15" y="65" width="27" height="9"></rect>
            <rect id="Rectangle-Copy-99" fill="#CDEFFF" x="15" y="86" width="27" height="9"></rect>
            <rect id="Rectangle-Copy-98" fill="#CDEFFF" x="15" y="106" width="27" height="9"></rect>
        </g>
        <g id="Group-7-Copy" transform="translate(598.000000, 569.000000)">
            <rect id="Rectangle" fill="#ACD8E6" fill-rule="nonzero" x="0" y="0" width="94" height="112"></rect>
            <rect id="Rectangle" fill="#175467" fill-rule="nonzero" x="66" y="0" width="28" height="112"></rect>
            <polygon id="Fill-48-Copy" fill="#2E3E5C" points="48 35 58 35 58 14 48 14"></polygon>
            <polygon id="Fill-57-Copy" fill="#CDEFFF" points="52 35 58 35 58 17 52 17"></polygon>
            <polygon id="Fill-48-Copy-2" fill="#2E3E5C" points="28 35 38 35 38 14 28 14"></polygon>
            <polygon id="Fill-57-Copy-2" fill="#CDEFFF" points="32 35 38 35 38 17 32 17"></polygon>
            <polygon id="Fill-48-Copy-3" fill="#2E3E5C" points="8 35 18 35 18 14 8 14"></polygon>
            <polygon id="Fill-57-Copy-3" fill="#CDEFFF" points="12 35 18 35 18 17 12 17"></polygon>
            <polygon id="Fill-48-Copy-6" fill="#2E3E5C" points="48 66 58 66 58 45 48 45"></polygon>
            <polygon id="Fill-57-Copy-6" fill="#CDEFFF" points="52 66 58 66 58 48 52 48"></polygon>
            <polygon id="Fill-48-Copy-5" fill="#2E3E5C" points="28 66 38 66 38 45 28 45"></polygon>
            <polygon id="Fill-57-Copy-5" fill="#CDEFFF" points="32 66 38 66 38 48 32 48"></polygon>
            <polygon id="Fill-48-Copy-4" fill="#2E3E5C" points="8 66 18 66 18 45 8 45"></polygon>
            <polygon id="Fill-57-Copy-4" fill="#CDEFFF" points="12 66 18 66 18 48 12 48"></polygon>
            <polygon id="Fill-48-Copy-9" fill="#2E3E5C" points="48 98 58 98 58 77 48 77"></polygon>
            <polygon id="Fill-57-Copy-9" fill="#CDEFFF" points="52 98 58 98 58 80 52 80"></polygon>
            <polygon id="Fill-48-Copy-8" fill="#2E3E5C" points="28 98 38 98 38 77 28 77"></polygon>
            <polygon id="Fill-57-Copy-8" fill="#CDEFFF" points="32 98 38 98 38 80 32 80"></polygon>
            <polygon id="Fill-48-Copy-7" fill="#2E3E5C" points="8 98 18 98 18 77 8 77"></polygon>
            <polygon id="Fill-57-Copy-7" fill="#CDEFFF" points="12 98 18 98 18 80 12 80"></polygon>
        </g>
        <g id="Group-85" transform="translate(802.000000, 632.000000)">
            <mask id="mask-11" fill="white">
                <use xlink:href="#path-10"></use>
            </mask>
            <g id="Clip-84"></g>
            <path d="M236.626477,49.5229256 C232.591356,39.4292437 212.443198,19.5816483 186.878279,24.9592668 C158.961826,30.8318684 152.83137,18.0238236 141.320751,12.6982589 C120.2576,2.9481312 109.881573,27.1388964 96.7148163,14.7056381 C78.3234463,-2.6537913 63.4273516,-4.42456288 51.5507356,11.5729529 C34.4769563,34.5768942 6.48730414,9.10371558 0.201298577,49.5229256 L236.626477,49.5229256" id="Fill-83" fill="url(#linearGradient-12)" mask="url(#mask-11)"></path>
        </g>
        <g id="Group-88" transform="translate(929.000000, 641.000000)">
            <mask id="mask-14" fill="white">
                <use xlink:href="#path-13"></use>
            </mask>
            <g id="Clip-87"></g>
        </g>
        <g id="Group-15" transform="translate(958.000000, 653.500000) scale(-1, 1) translate(-958.000000, -653.500000) translate(888.000000, 625.000000)">
            <mask id="mask-16" fill="white">
                <use xlink:href="#path-15"></use>
            </mask>
            <g id="Clip-14"></g>
            <path d="M2.84928986,56.1479395 L138.019454,56.1479395 C145.04386,27.3338611 117.454975,41.7413735 117.454975,41.7413735 C117.454975,41.7413735 127.853876,11.4328812 117.196032,14.5797628 C106.904184,17.6168585 102.389606,41.2255689 102.389606,41.2255689 C102.389606,41.2255689 96.8447454,2.66988062 84.6863113,0.142911015 C76.7935771,-1.49819958 82.9871684,36.801006 82.9871684,36.801006 C82.9871684,36.801006 78.3298513,32.7095867 71.6284387,32.6045329 C65.9975685,32.5165148 67.3609088,39.9952091 67.3609088,39.9952091 C67.3609088,39.9952091 55.6160518,15.1286925 49.5002351,15.4523718 C41.8307593,15.8574441 50.0556362,41.9808205 50.0556362,41.9808205 C50.0556362,41.9808205 34.9545829,24.9961776 29.005295,25.4419464 C20.7374134,26.0599655 35.1513065,50.315088 35.1513065,50.315088 C35.1513065,50.315088 24.1988339,43.5102522 11.1674961,44.6336653 C1.76502252,45.4438099 -1.84279697,49.3658181 2.84928986,56.1479395" id="Fill-13" fill="url(#linearGradient-17)" mask="url(#mask-16)"></path>
        </g>
        <g id="Group-Copy-6" transform="translate(888.000000, 504.000000)">
            <g id="Group-75">
                <mask id="mask-19" fill="white">
                    <use xlink:href="#path-18"></use>
                </mask>
                <g id="Clip-74"></g>
                <path d="M118.137006,40.0267153 C115.625192,35.8350714 110.532029,31.8361808 104.086902,30.862035 C93.3400055,29.2392001 97.0281579,16.9333816 87.6869889,13.6765914 C77.8368621,10.2411336 77.006759,18.4316682 51.8162119,3.66453768 C44.7739555,-0.464832111 31.713093,-1.75998634 25.9145575,6.08581627 C22.5203104,10.6777941 21.6887736,17.3559562 22.6859009,22.916149 C23.6443187,28.2672784 27.5174164,35.9907568 23.3088366,40.7992115 C19.3117253,45.3659831 12.2816551,43.9210743 7.41358065,46.8205295 C2.46737039,49.7659489 0.560570496,55.7205446 0.485302079,61.3289257 C0.308958931,74.4287397 5.74405548,88.553112 13.793475,98.5481144 C30.5697299,119.377338 60.7989599,124.357046 84.6698007,115.386602 C98.7758188,110.086626 109.812319,99.2924389 116.253145,85.3200452 C122.383579,72.023771 126.121193,53.3630229 118.137006,40.0267153" id="Fill-73" fill="url(#linearGradient-20)" mask="url(#mask-19)"></path>
            </g>
            <g id="Group-78">
                <mask id="mask-22" fill="white">
                    <use xlink:href="#path-21"></use>
                </mask>
                <g id="Clip-77"></g>
                <path d="M80.6967844,12.7464845 C75.3808181,13.0061639 69.8405766,14.2261391 51.7917997,3.65400701 C44.7568681,-0.463131887 31.7030503,-1.75413052 25.9019904,6.07472192 C22.5142173,10.6572122 21.6801716,17.3200968 22.6790201,22.871021 C23.63416,28.2066555 27.5084598,35.9186152 23.295956,40.717135 C19.3005619,45.2722517 12.2742288,43.8288487 7.41039544,46.7252725 C2.4684599,49.666086 0.557463513,55.6032001 0.488676241,61.1985139 C0.305960051,74.2734817 5.74302064,88.3708908 13.7853991,98.3422831 C14.5585394,99.3018391 15.3574749,100.225883 16.1915206,101.112936 C46.4765499,118.124525 24.5463079,66.2567131 34.6558872,56.8401913 C41.0574027,50.8771833 53.5731034,59.3245314 59.2444707,55.1371089 C62.0754968,53.0478366 61.8497886,48.9129418 59.6435801,45.7657165 C52.8343568,36.0710196 41.8907318,25.749689 47.3019972,19.8843382 C50.1939287,16.7459908 55.9527131,18.467569 66.8003225,18.5038205 C79.3332201,18.540072 85.7949244,15.2034509 80.6967844,12.7464845" id="Fill-76" fill="url(#linearGradient-23)" mask="url(#mask-22)"></path>
            </g>
            <polyline id="Fill-79" fill="#2E3E5C" points="67.7079277 177 61.4713608 177 61.2194801 134.715727 54.3877551 68.9297168 56.0206619 66.7924528 64.9264448 130.989806 71.2659229 88.737455 72.7959184 90.3758509 66.5643892 138.441649 67.7079277 177"></polyline>
            <polyline id="Fill-80" fill="#2E3E5C" points="83.6734694 85.2115953 69.4489796 107.70283 69.4489796 105.850575 82.8644436 84.3254717 83.6734694 85.2115953"></polyline>
            <polyline id="Fill-81" fill="#2E3E5C" points="57.4761309 102.693396 45.1836735 85.1353449 45.8629371 84.3254717 57.7346939 100.53499 57.4761309 102.693396"></polyline>
            <polyline id="Fill-82" fill="#2E3E5C" points="61.0816327 66.2165056 57.6620574 86.8301887 56.8979592 84.7945691 60.3013631 65.9575472 61.0816327 66.2165056"></polyline>
        </g>
        <g id="Group-Copy-5" transform="translate(498.000000, 562.000000)">
            <g id="Group-91-Copy-2" transform="translate(0.796460, 0.000000)">
                <mask id="mask-25" fill="white">
                    <use xlink:href="#path-24"></use>
                </mask>
                <g id="Clip-90"></g>
                <path d="M78.3048644,19.8258691 C78.4765103,9.42793327 69.2370561,6.15791974 60.2771396,9.06056017 C53.4995782,11.2564494 52.9503113,12.2107354 35.7857203,2.42770755 C30.9894431,-0.307945101 22.0589516,-1.16596758 18.0522456,4.03177247 C15.7080529,7.0738968 15.1097443,11.4980905 15.7619988,15.1816444 C16.3946365,18.7266966 19.0085585,23.8433985 16.1052906,27.0289358 C13.3491477,30.0543614 8.54306217,29.0971285 5.198419,31.0179791 C1.79982998,32.9692803 0.470800212,36.9141209 0.39233351,40.6295989 C0.205975093,49.3080517 3.49176824,58.9854844 9.31792086,65.2868172 C21.0585011,77.9936045 41.7001479,82.9035362 60.7724607,78.0432097 C102.825709,67.327506 87.0097641,44.7011537 82.0810744,38.7023635 C76.7747637,32.2527063 78.1871643,26.9950471 78.3048644,19.8258691" id="Fill-89" fill="url(#linearGradient-26)" mask="url(#mask-25)"></path>
            </g>
            <polyline id="Fill-95-Copy-7" fill="#2E3E5C" points="45.9992646 119 50.341739 119 49.9610838 90.9748394 50.8876787 45.1866503 49.7657476 43.7701149 47.4016785 88.505374 40.9806264 61.016027 39.9087815 62.1024146 46.2246526 93.4443049 45.9992646 119"></polyline>
            <polyline id="Fill-96-Copy-4" fill="#2E3E5C" points="55.7326478 53.3448276 49.5279534 64.1781387 49.5153165 66.3390805 56.3771273 53.991828 55.7326478 53.3448276"></polyline>
            <polyline id="Fill-97-Copy-4" fill="#2E3E5C" points="46.6274454 48.5574713 50.2014976 54.1816811 50.1904153 55.3965517 46.0844112 48.7321923 46.6274454 48.5574713"></polyline>
            <path d="M61.5421166,8.63597537 C54.6684614,10.7826051 54.1114068,11.721906 36.7034521,2.13304914 C31.8341985,-0.544824501 22.7820621,-1.38451714 18.7235218,3.70753298 C16.3411188,6.68808094 15.7293536,11.0217611 16.3958296,14.6321988 C17.037437,18.1026076 19.6834461,23.1186282 16.7439887,26.2396863 C13.9487685,29.2024299 9.07951488,28.2636103 5.68745057,30.1475052 C2.23570183,32.0602721 0.88782877,35.9218958 0.803275847,39.5612055 C0.619248897,48.0654393 3.92868123,58.0788012 9.46938452,64.5644043 C10.2005186,65.4219013 10.6315286,65.6431281 12.8488407,66.848144 C27.4513388,74.7839875 11.4072071,53.1459406 27.1738404,43.1307413 C34.9676304,38.1729457 50.0130769,32.9644454 43.4627123,25.0732594 C38.6780116,19.304162 35.0472096,17.0584053 36.5094778,13.8858588 C37.3102437,12.1357373 39.652857,10.4909984 47.0487509,11.7916798 C57.1652595,13.5764477 64.551206,10.106039 62.069329,8.48439762 C61.8952494,8.53155514 61.7161962,8.58352466 61.5421166,8.63597537 Z" id="Fill-92-Copy-2" fill="url(#linearGradient-27)"></path>
            <polyline id="Fill-98-Copy-4" fill="#2E3E5C" points="37.6173591 64.9712644 42.9058818 69.871484 43.3396869 71.1264368 37.1640572 65.3149004 37.6173591 64.9712644"></polyline>
        </g>
    </g>
</svg>