<?xml version="1.0" encoding="UTF-8"?>
<svg width="1000px" height="680px" viewBox="0 0 1000 680" version="1.1" xmlns="http://www.w3.org/2000/svg" xmlns:xlink="http://www.w3.org/1999/xlink">
    <!-- Generator: Sketch 53.2 (72643) - https://sketchapp.com -->
    <title>MoankLanet_illustration</title>
    <desc>Created with Sketch.</desc>
    <defs>
        <linearGradient x1="20.4696994%" y1="-78.0990631%" x2="65.1729918%" y2="100%" id="linearGradient-1">
            <stop stop-color="#B0D3DE" offset="0%"></stop>
            <stop stop-color="#60A7BD" offset="100%"></stop>
        </linearGradient>
        <circle id="path-2" cx="293" cy="293" r="293"></circle>
        <filter x="-14.0%" y="-17.0%" width="128.7%" height="133.9%" filterUnits="objectBoundingBox" id="filter-4">
            <feOffset dx="6" dy="6" in="SourceAlpha" result="shadowOffsetOuter1"></feOffset>
            <feColorMatrix values="0 0 0 0 0   0 0 0 0 0   0 0 0 0 0  0 0 0 0.5 0" type="matrix" in="shadowOffsetOuter1" result="shadowMatrixOuter1"></feColorMatrix>
            <feMerge>
                <feMergeNode in="shadowMatrixOuter1"></feMergeNode>
                <feMergeNode in="SourceGraphic"></feMergeNode>
            </feMerge>
        </filter>
        <filter x="-8.8%" y="-8.8%" width="116.9%" height="116.9%" filterUnits="objectBoundingBox" id="filter-5">
            <feOffset dx="4" dy="6" in="SourceAlpha" result="shadowOffsetOuter1"></feOffset>
            <feColorMatrix values="0 0 0 0 0   0 0 0 0 0   0 0 0 0 0  0 0 0 0.5 0" type="matrix" in="shadowOffsetOuter1" result="shadowMatrixOuter1"></feColorMatrix>
            <feMerge>
                <feMergeNode in="shadowMatrixOuter1"></feMergeNode>
                <feMergeNode in="SourceGraphic"></feMergeNode>
            </feMerge>
        </filter>
        <filter x="-10.7%" y="-5.5%" width="121.8%" height="111.2%" filterUnits="objectBoundingBox" id="filter-6">
            <feOffset dx="8" dy="11" in="SourceAlpha" result="shadowOffsetOuter1"></feOffset>
            <feColorMatrix values="0 0 0 0 0   0 0 0 0 0   0 0 0 0 0  0 0 0 0.5 0" type="matrix" in="shadowOffsetOuter1" result="shadowMatrixOuter1"></feColorMatrix>
            <feMerge>
                <feMergeNode in="shadowMatrixOuter1"></feMergeNode>
                <feMergeNode in="SourceGraphic"></feMergeNode>
            </feMerge>
        </filter>
        <path d="M34.5258887,10.0939765 L167.094127,10.0939765 C180.406021,10.0939765 191.197443,20.3438658 191.197443,32.987745 L191.197443,358.995008 C191.197443,371.638888 180.406021,381.888777 167.094127,381.888777 L34.5258887,381.888777 C21.2139949,381.888777 10.4225727,371.638888 10.4225727,358.995008 L10.4225727,32.987745 C10.4225727,20.3438658 21.2139949,10.0939765 34.5258887,10.0939765 Z" id="path-7"></path>
        <linearGradient x1="96.570732%" y1="61.7448813%" x2="9.03769999%" y2="47.2951731%" id="linearGradient-9">
            <stop stop-color="#2FC587" offset="0%"></stop>
            <stop stop-color="#D0FDEB" offset="100%"></stop>
        </linearGradient>
        <linearGradient x1="50%" y1="0%" x2="50%" y2="100%" id="linearGradient-10">
            <stop stop-color="#FFF2D7" offset="0%"></stop>
            <stop stop-color="#F7CE8F" offset="100%"></stop>
        </linearGradient>
        <linearGradient x1="50%" y1="-31.8306428%" x2="50%" y2="59.720314%" id="linearGradient-11">
            <stop stop-color="#D8E9EE" offset="0%"></stop>
            <stop stop-color="#3891AC" offset="100%"></stop>
        </linearGradient>
        <linearGradient x1="50%" y1="0%" x2="50%" y2="96.7733923%" id="linearGradient-12">
            <stop stop-color="#FFFFFF" offset="0%"></stop>
            <stop stop-color="#F2F6FF" offset="100%"></stop>
        </linearGradient>
        <linearGradient x1="50%" y1="-15.0597964%" x2="50%" y2="59.5953389%" id="linearGradient-13">
            <stop stop-color="#D8E9EE" offset="0%"></stop>
            <stop stop-color="#3891AC" offset="100%"></stop>
        </linearGradient>
        <linearGradient x1="50%" y1="0%" x2="50%" y2="100%" id="linearGradient-14">
            <stop stop-color="#FFFFFF" offset="0%"></stop>
            <stop stop-color="#F2F6FF" offset="100%"></stop>
        </linearGradient>
        <linearGradient x1="50%" y1="35.3188784%" x2="50%" y2="-15.9102297%" id="linearGradient-15">
            <stop stop-color="#3891AC" offset="0%"></stop>
            <stop stop-color="#9EC9D6" offset="100%"></stop>
        </linearGradient>
        <linearGradient x1="50%" y1="0%" x2="50%" y2="100%" id="linearGradient-16">
            <stop stop-color="#FFFFFF" offset="0%"></stop>
            <stop stop-color="#F0F5FF" offset="100%"></stop>
        </linearGradient>
        <linearGradient x1="82.8583843%" y1="55.3439336%" x2="17.4910635%" y2="45.1248655%" id="linearGradient-17">
            <stop stop-color="#2F7A5D" offset="0%"></stop>
            <stop stop-color="#93E4C4" offset="100%"></stop>
        </linearGradient>
        <linearGradient x1="43.452355%" y1="23.3860924%" x2="51.3024156%" y2="89.8696905%" id="linearGradient-18">
            <stop stop-color="#3CC79D" offset="0%"></stop>
            <stop stop-color="#1A8F5E" offset="100%"></stop>
        </linearGradient>
        <linearGradient x1="57.1796331%" y1="23.956118%" x2="50%" y2="107.938339%" id="linearGradient-19">
            <stop stop-color="#1C9670" offset="0%"></stop>
            <stop stop-color="#034328" offset="100%"></stop>
        </linearGradient>
        <linearGradient x1="43.4218344%" y1="23.3860924%" x2="51.3084865%" y2="89.8696905%" id="linearGradient-20">
            <stop stop-color="#3CC79D" offset="0%"></stop>
            <stop stop-color="#1A8F5E" offset="100%"></stop>
        </linearGradient>
        <linearGradient x1="58.9765751%" y1="23.956118%" x2="50%" y2="107.938339%" id="linearGradient-21">
            <stop stop-color="#1C9670" offset="0%"></stop>
            <stop stop-color="#034328" offset="100%"></stop>
        </linearGradient>
        <linearGradient x1="40.5534486%" y1="100%" x2="50%" y2="67.0789738%" id="linearGradient-22">
            <stop stop-color="#FFC1AA" offset="0%"></stop>
            <stop stop-color="#FF8D71" offset="100%"></stop>
        </linearGradient>
        <linearGradient x1="50%" y1="-22.8624399%" x2="50%" y2="100%" id="linearGradient-23">
            <stop stop-color="#FFC0A9" offset="0%"></stop>
            <stop stop-color="#FF704E" offset="100%"></stop>
        </linearGradient>
        <linearGradient x1="55.0318044%" y1="118.501531%" x2="48.1876196%" y2="53.8744193%" id="linearGradient-24">
            <stop stop-color="#FFC1AA" offset="0%"></stop>
            <stop stop-color="#FF8D71" offset="100%"></stop>
        </linearGradient>
        <linearGradient x1="30.3525342%" y1="13.6670817%" x2="50%" y2="71.1189609%" id="linearGradient-25">
            <stop stop-color="#FFD4C6" offset="0%"></stop>
            <stop stop-color="#FFA994" offset="100%"></stop>
        </linearGradient>
    </defs>
    <g id="MoankLanet_illustration" stroke="none" stroke-width="1" fill="none" fill-rule="evenodd">
        <rect fill="#FFFFFF" x="0" y="0" width="1000" height="680"></rect>
        <g id="Group-5" transform="translate(195.000000, 47.000000)">
            <g id="Group-4" transform="translate(23.483109, 0.000000)">
                <mask id="mask-3" fill="white">
                    <use xlink:href="#path-2"></use>
                </mask>
                <use id="Mask" fill="url(#linearGradient-1)" xlink:href="#path-2"></use>
            </g>
            <g id="Group-3" filter="url(#filter-4)" transform="translate(419.483109, 134.000000)">
                <ellipse id="Oval" stroke="#FFFFFF" stroke-width="13.272336" fill="#653914" cx="55.6363636" cy="56" rx="55.6363636" ry="56"></ellipse>
                <path d="M89.6560517,20.9130437 C81.4604217,11.4388345 70.1205257,6.70172992 55.6363636,6.70172992 C41.5356774,6.70172992 31.1240565,11.7346606 23.1731893,19.5028669 C18.1741274,24.3870818 12.1083302,31.2427356 9.63149159,39.0389312 C7.19728689,46.7009307 7.12015877,53.2441199 7.12015877,61.1946975 C7.12015877,66.4950825 8.93279206,72.5065721 12.5580586,79.2291662 C15.4393373,54.8782532 23.3846497,38.4804728 36.3939957,30.0358249 C49.4033418,21.591177 67.1573604,18.5502499 89.6560517,20.9130437 Z" id="Oval-Copy-3" fill="#42281B"></path>
                <path d="M111.834711,38.9803922 L135.438017,32.3921569" id="Line" stroke="#FFFFFF" stroke-width="16.59042" stroke-linecap="round"></path>
            </g>
            <g id="Group-2" filter="url(#filter-5)" transform="translate(489.483109, 394.000000) scale(-1, 1) rotate(35.000000) translate(-489.483109, -394.000000) translate(415.483109, 320.000000)">
                <polygon id="Rectangle" fill="#96A6CC" transform="translate(74.680290, 69.105607) rotate(45.000000) translate(-74.680290, -69.105607) " points="-3.61686082 64.7448003 152.940768 64.5552386 152.97744 73.4664138 -3.58018932 73.6559754"></polygon>
                <polygon id="Rectangle-Copy-8" fill="#516CAA" transform="translate(68.772372, 74.974098) rotate(45.000000) translate(-68.772372, -74.974098) " points="-9.44685897 70.4422694 146.954227 70.4234056 146.991604 79.5059257 -9.40948234 79.5247895"></polygon>
                <polygon id="Rectangle-Copy-14" fill="#FFC6B9" transform="translate(140.206697, 134.322167) scale(-1, 1) rotate(-45.000000) translate(-140.206697, -134.322167) " points="135.282527 130.075076 145.376715 130.245323 145.319358 138.560521 135.03668 138.569258"></polygon>
                <polygon id="Rectangle-Copy-11" fill="#D1D2D8" transform="translate(133.446417, 126.653304) scale(-1, 1) rotate(-45.000000) translate(-133.446417, -126.653304) " points="128.394754 121.786523 138.465413 121.775089 138.532212 131.286612 128.360621 131.53152"></polygon>
                <polygon id="Rectangle-Copy-12" fill="#A4A6B1" transform="translate(126.834255, 133.451277) scale(-1, 1) rotate(-45.000000) translate(-126.834255, -133.451277) " points="121.672026 128.584026 132.051557 128.573444 132.024686 138.286279 121.616953 138.329109"></polygon>
                <polygon id="Rectangle-Copy-9" fill="#FFECC4" transform="translate(8.638960, 14.914760) scale(-1, 1) rotate(-45.000000) translate(-8.638960, -14.914760) " points="1.86850096 10.4718739 15.3373318 10.4164466 15.4462139 13.4860555 1.8317059 19.413073"></polygon>
                <polygon id="Rectangle-Copy-10" fill="#FFF7E7" transform="translate(14.712151, 8.954698) scale(-1, -1) rotate(45.000000) translate(-14.712151, -8.954698) " points="7.97208734 4.69125149 21.4409182 4.74667878 21.4522151 7.49184211 8.00717744 13.2181449"></polygon>
                <path d="M4.25593059,1.41469477 C4.37335862,1.42957508 5.27457657,3.60847993 6.95958444,7.95140933 L1.97428797,8.04431662 C3.37795502,3.60968841 4.13850256,1.39981446 4.25593059,1.41469477 Z" id="Triangle" stroke="#484D65" stroke-width="1.05" fill="#484D65" transform="translate(4.466936, 4.729468) scale(-1, 1) rotate(45.000000) translate(-4.466936, -4.729468) "></path>
                <polygon id="Rectangle-Copy-13" fill="#FF8E71" transform="translate(134.408204, 140.171333) scale(-1, 1) rotate(-45.000000) translate(-134.408204, -140.171333) " points="129.281751 135.947292 139.569671 135.886718 139.329544 144.412266 129.246736 144.455948"></polygon>
            </g>
            <g id="Samlån-Copy" transform="translate(183.483109, 90.000000)">
                <g id="iPhoneX---White" stroke-width="1" fill-rule="evenodd" transform="translate(116.707702, 203.409277) rotate(-4.000000) translate(-116.707702, -203.409277) translate(15.471338, 8.679648)">
                    <g id="Base" filter="url(#filter-6)" transform="translate(1.042745, 0.000000)" fill="#FFFFFF">
                        <path d="M27.9902089,0 L172.284561,0 C187.743127,-2.69558222e-15 200.27477,11.895681 200.27477,26.5697472 L200.27477,362.814479 C200.27477,377.488545 187.743127,389.384226 172.284561,389.384226 L27.9902089,389.384226 C12.5316434,389.384226 1.71450341e-15,377.488545 0,362.814479 L3.42900682e-15,26.5697472 C1.71450341e-15,11.895681 12.5316434,2.69558222e-15 27.9902089,0 Z" id="Device"></path>
                    </g>
                    <mask id="mask-8" fill="white">
                        <use xlink:href="#path-7"></use>
                    </mask>
                    <use id="SCREEN-MASK" fill="#DDF8FB" xlink:href="#path-7"></use>
                    <g id="Top-Overlay" transform="translate(47.941885, 8.411647)">
                        <path d="M7.25795804,0.814131537 C8.33749382,0.293434887 9.55863354,2.25986173e-16 10.8518168,0 L95.7371397,0 C97.0303229,-2.25986173e-16 98.2514627,0.293434887 99.3309984,0.814131537 L106.287988,0.814131537 C104.763145,1.18145626 103.695139,2.4868003 103.695139,3.98317562 L103.695139,8.62656824 L103.618323,8.62656824 C103.078215,12.3077065 99.7554853,15.1409647 95.7371397,15.1409647 L10.8518168,15.1409647 C6.83347117,15.1409647 3.51074161,12.3077065 2.97063364,8.62656824 L2.89381782,8.62656824 L2.89381782,4.24019618 C2.89381782,2.6010655 1.70274221,1.17958405 0.0230789507,0.814131537 L7.25795804,0.814131537 L7.25795804,0.814131537 Z" id="Combined-Shape" fill="#FFFFFF"></path>
                        <ellipse id="Camera" fill="#D8D8D8" cx="76.4450208" cy="4.81757968" rx="3.61727228" ry="3.44112835"></ellipse>
                        <rect id="Ear" fill="#D8D8D8" x="41.9603584" y="3.21171979" width="25.0797545" height="2.75290268" rx="1.37645134"></rect>
                    </g>
                </g>
                <path d="M40.8451177,47.4191401 L173.843654,47.4400716 C181.960759,47.4411176 188.540712,54.0210688 188.54176,62.1381737 L188.549353,62.2110316 C188.550401,70.3296174 181.969837,76.9118812 173.851251,76.9129293 C173.849987,76.9129295 173.848723,76.9129295 173.847459,76.9129293 L40.8489232,76.8882062 C32.7318183,76.8871602 26.1518656,70.307209 26.1508176,62.1901041 L26.143224,62.1172462 C26.1421759,53.9986604 32.7227403,47.4163966 40.8413261,47.4153485 C40.8425901,47.4153483 40.8438542,47.4153483 40.8451182,47.4153485 Z" id="Rectangle-Copy-4" fill="#FFFFFF" fill-rule="evenodd" transform="translate(107.346289, 62.164139) rotate(-4.000000) translate(-107.346289, -62.164139) "></path>
                <text id="www.moank.se" transform="translate(107.171609, 60.667466) rotate(-4.000000) translate(-107.171609, -60.667466) " font-family="Helvetica-Light, Helvetica" font-size="21" font-weight="300" fill="#516BAA">
                    <tspan x="35.9921095" y="68.1674664">www.moank.se</tspan>
                </text>
                <g id="Group-2" stroke-width="1" fill-rule="evenodd" transform="translate(127.275665, 328.397842) rotate(-4.000000) translate(-127.275665, -328.397842) translate(37.639301, 264.189694)">
                    <path d="M159.652574,52.4290669 C153.062635,49.1521102 127.098703,46.3804033 101.511885,50.4141675 C75.9250676,54.4479318 45.1453507,45.2011789 22.6556576,62.4251289 C10.9261087,71.4086738 21.2526166,72.9776507 1.26037269,116.24743 C2.94919801,118.50942 4.32621361,119.647863 5.39141949,119.662758 C42.1213081,120.176358 97.4369343,119.830659 171.338298,118.62566 C173.521032,116.418896 175.042327,114.211096 175.902183,112.00226 C177.191967,108.689006 177.480084,107.870215 177.703471,104.681548 C177.852396,102.555769 177.903427,89.0111629 177.856563,64.0477295 C174.689307,60.7618075 168.621311,56.8889199 159.652574,52.4290669 Z" id="Fill-4" fill-opacity="0.7" fill="url(#linearGradient-9)"></path>
                    <ellipse id="Oval" fill="url(#linearGradient-10)" fill-rule="nonzero" cx="66.5816979" cy="59.7887263" rx="52.1901173" ry="52.6809756"></ellipse>
                    <path d="M174.0526,115.449991 C174.647131,114.604302 175.386775,113.137177 176.271533,111.048616 C131.789815,37.2868184 108.692676,0.409981687 106.980114,0.418106 C104.318787,0.430731215 80.1901514,40.0111457 34.5942067,119.15935 L170.865523,119.15935 C172.395711,117.532132 173.45807,116.295679 174.0526,115.449991 Z" id="Oval-Copy" fill="url(#linearGradient-11)" fill-rule="nonzero"></path>
                    <path d="M95.8704874,14.8174671 C98.4171303,10.7440038 103.897883,0.418102981 106.94481,0.418102981 C109.991737,0.418102981 115.678569,10.8518847 118.227284,14.8174671 C119.926427,17.4611887 122.352674,21.4171723 125.506024,26.685418 C124.287199,29.0512951 122.616262,30.017779 120.493212,29.5848696 C118.370162,29.1519603 117.133128,27.7259448 116.782109,25.3068231 C115.519869,27.2346925 114.029378,28.1986272 112.310634,28.1986272 C110.591891,28.1986272 108.851445,26.7470496 107.089298,23.8438944 C105.890345,25.986917 103.676464,27.0584283 100.447654,27.0584283 C97.2188447,27.0584283 94.4882495,25.1182843 92.2558685,21.2379962 C92.9678525,19.6732856 94.1727255,17.5331093 95.8704874,14.8174671 Z" id="Path-71-Copy-5" fill="url(#linearGradient-12)" fill-rule="nonzero"></path>
                    <path d="M63.8846999,125.772821 C79.5413601,125.772821 101.112381,125.823942 128.597763,125.926184 C86.7628785,61.7656023 64.3441858,29.6853117 61.3416853,29.6853117 C58.3391849,29.6853117 39.2402108,59.5303017 4.04476307,119.220282 C5.89057135,120.845422 7.19938647,121.865455 7.97120842,122.28038 C8.53431646,122.583103 9.57139159,123.271608 10.8277693,123.832511 C12.1544658,124.424807 13.926234,124.945813 15.4375812,125.292529 C18.3801698,125.967585 19.7238542,125.893257 20.9010495,125.952245 C32.091803,126.513003 52.2529135,125.772821 63.8846999,125.772821 Z" id="Oval-Copy-5" fill="url(#linearGradient-13)" fill-rule="nonzero"></path>
                    <path d="M53.1666426,39.3315006 C54.9213471,36.8268487 59.3602145,29.6853117 61.378581,29.6853117 C63.3969476,29.6853117 68.5824099,37.3321872 70.0426985,39.2625207 C70.7446847,40.1904657 72.5207664,42.6732632 75.5466387,46.9014485 C76.7483153,48.5806045 78.9509542,51.7018309 82.1545555,56.2651279 C82.1545555,57.1148332 81.3965637,57.7487767 79.88058,58.1669586 C78.3645964,58.5851404 76.2213243,57.7628969 73.4507636,55.700228 C71.6337876,58.4522549 69.6004124,59.8149602 67.3506378,59.7883439 C65.1008633,59.7617275 63.1101777,58.001715 61.378581,54.5083064 C57.4172279,57.9829215 53.7550845,59.4812601 50.3921509,59.0033222 C47.0292173,58.5253844 44.8497482,56.6435661 43.8537436,53.3578674 C48.8925399,45.6767241 51.9968395,41.0012685 53.1666426,39.3315006 Z" id="Path-71-Copy-4" fill="url(#linearGradient-14)" fill-rule="nonzero"></path>
                    <path d="M170.865523,119.15935 C172.139911,117.788315 173.231151,116.487866 174.139243,115.258002 C175.501381,113.413207 176.608227,110.434248 177.232183,108.019657 C177.964325,105.186406 177.766984,101.127489 177.791929,94.4872231 C177.808559,90.0603789 177.841625,85.9395732 177.891126,82.1248062 C162.894565,58.8720266 155.015904,47.2456369 154.255144,47.2456369 C152.616585,47.2456369 135.258246,73.4146922 102.180129,125.752803 C135.117452,126.298218 153.628902,126.266479 157.714479,125.657586 C162.46607,124.949433 166.849752,122.783354 170.865523,119.15935 Z" id="Oval-Copy-4" fill="url(#linearGradient-15)" fill-rule="nonzero"></path>
                    <path d="M146.48153,56.3466468 C147.804664,54.2716833 152.364953,47.2459909 154.255144,47.2456369 C156.145334,47.2452829 158.553365,51.8194538 161.577671,56.3466468 C162.268186,57.3803046 164.66493,61.1761776 168.767903,67.7342657 C168.454761,68.8167888 166.364962,69.4964018 162.498506,69.7731049 C158.63205,70.0498079 155.765213,69.180173 153.897993,67.1642002 C152.708753,68.6596634 151.365656,69.407395 149.868703,69.407395 C148.37175,69.407395 147.100131,68.5732558 146.053847,66.9049773 C145.347979,68.0157273 144.264999,68.5711023 142.804907,68.5711023 C141.344815,68.5711023 140.348585,68.0157273 139.816217,66.9049773 C143.033234,61.7895508 145.255005,58.2701074 146.48153,56.3466468 Z" id="Path-71-Copy-3" fill="url(#linearGradient-16)" fill-rule="nonzero"></path>
                    <path d="M144.866874,58.1904835 C134.623571,41.577793 128.610695,31.8079105 126.828247,28.880836 C124.480786,25.025917 120.75201,18.9988895 118.81415,15.6558319 C116.876291,12.3127743 114.748763,8.76408619 112.923999,6.27489227 C111.099235,3.78569835 108.688043,-5.13303319e-13 106.802128,-2.99406167e-13 C106.802128,-2.99406167e-13 106.802128,16.1524199 106.802128,48.4572598 L106.802128,64.3965264 L98.9903618,57.0181856 L95.3382181,75.6497094 C85.2102444,60.6856581 79.8984565,52.8530019 79.4028543,52.1517407 C78.659451,51.0998489 66.3895987,34.1904103 65.2957236,32.9515272 C64.2018484,31.712644 63.0426714,30.531563 62.5412409,30.1762322 C62.0398105,29.8209013 61.6787745,29.6853117 61.176496,29.6853117 C61.176496,29.6853117 61.176496,42.2360438 61.176496,67.3375081 L52.676366,88.8098469 L47.1138601,85.7999854 L41.9012731,97.8394312 L38.9370408,91.2287094 L22.5402159,123.449312 L108.809164,118.741247 L144.866874,58.1904835 Z" id="Path-94-Copy" fill-opacity="0.7" fill="#0E4D60" fill-rule="nonzero"></path>
                    <path d="M154.126866,47.2456369 C154.126866,47.2456369 153.855735,63.362654 153.313472,95.5966882 L155.99778,125.794019 C155.929741,125.890682 156.617616,125.817978 158.061402,125.575907 C160.227082,125.2128 162.009998,124.657184 163.500707,124.057015 C165.434034,123.278644 167.888972,121.646089 170.865523,119.15935 C172.553714,117.396725 173.704003,116.043681 174.316392,115.100215 C175.199587,113.739537 175.738803,112.287321 176.359571,110.837979 C178.259183,106.402849 177.775406,102.320495 177.794831,94.6474195 C177.80778,89.532036 177.839879,85.3578316 177.891126,82.1248062 C164.570397,61.1621989 157.692546,50.3829052 157.257571,49.7869249 C156.331991,48.5187423 155.490696,47.6910486 155.064553,47.4883166 C154.638409,47.2855847 154.447338,47.2456369 154.126866,47.2456369 Z" id="Path-95-Copy" fill-opacity="0.6" fill="#0E4D60" fill-rule="nonzero"></path>
                    <g id="Group-12-Copy-3" transform="translate(19.367336, 91.135960)" fill="url(#linearGradient-17)">
                        <path d="M19.7056891,26.2092304 C29.5781531,28.2397857 31.7475255,23.811179 35.8174197,21.9697713 C43.2692374,18.5984932 49.0205622,29.7212239 51.5961814,22.663858 C54.8847746,13.6538211 68.2523256,12.787504 76.50225,18.0627931 C79.8971638,20.2336192 80.1037598,15.5040644 81.8639147,12.7804041 C85.2819821,7.4917975 89.4211932,17.2538434 91.3204771,16.7181433 C93.4769764,16.1094676 92.8187131,11.9541105 94.0817666,8.39597546 C96.7128393,0.982566978 101.253841,7.94994051 104.384243,7.33799234 C107.501029,6.72931662 109.169587,-1.42988324 112.698562,0.219758857 C120.238016,3.74320589 117.871585,24.4565061 117.405429,29.0772057 C119.54955,25.1342305 123.128764,22.4819886 123.128764,34.9457693 C75.0545751,35.0070941 39.0798415,35.0377566 15.204563,35.0377566 C13.3167271,35.0377566 10.8051902,35.0355532 7.86842619,34.9855733 C6.65118071,34.9648573 4.65566217,34.9165281 1.88187058,34.8405856 C3.30757133,31.3505176 10.6613149,24.3498243 19.7056891,26.2092304 Z" id="Fill-10"></path>
                    </g>
                    <g id="Group-Copy-9" transform="translate(143.456004, 70.183822)" fill-rule="nonzero">
                        <path d="M14.3914439,46.6259534 L17.368984,46.6259534 L17.3469552,54.8028457 C17.0151422,54.9126049 16.652811,55.0141824 16.2599616,55.1075783 C15.8671121,55.2009742 15.2563496,55.3098084 14.427674,55.4340809 L14.3914439,46.6259534 Z" id="Rectangle" fill="#4D362C"></path>
                        <polygon id="Rectangle-Copy" fill="#2E1F18" transform="translate(18.102355, 50.714400) scale(-1, 1) translate(-18.102355, -50.714400) " points="17.3469552 46.6259534 18.8357253 46.6259534 18.857754 54.8028457 17.3663702 54.3068743"></polygon>
                        <polygon id="Path-96" fill="url(#linearGradient-18)" points="16.8727273 0 11.9082506 10.5803202 13.5630762 10.5803202 9.42601234 19.5328304 11.0808379 19.5328304 5.76175578 30.9196218 7.2983795 31.1071353 0 46.6259534 16.8727273 46.6259534"></polygon>
                        <path d="M31.9975716,0 L27.033095,10.5803202 L28.6879205,10.5803202 L24.5508567,19.5328304 L26.2056822,19.5328304 L20.8866001,30.9196218 L22.4232238,31.1071353 L16.8727273,42.8234217 C17.3055306,43.6819917 17.646335,44.3147077 17.8951405,44.7215698 C18.143946,45.1284319 18.5185844,45.6537135 19.0190557,46.2974147 L31.9975716,46.6259534 L31.9975716,0 Z" id="Path-96-Copy" fill="url(#linearGradient-19)" transform="translate(24.435149, 23.312977) scale(-1, 1) translate(-24.435149, -23.312977) "></path>
                    </g>
                    <g id="Group-Copy-6" transform="translate(1.892381, 68.891573)" fill-rule="nonzero">
                        <path d="M14.7310815,46.4150883 L17.5370018,46.4150883 L17.5355616,56.9907841 C17.4989403,57.0022618 17.1675055,56.9791285 16.541257,56.9213843 C15.9150086,56.8636402 15.3208214,56.7847909 14.7586955,56.6848364 L14.7310815,46.4150883 Z" id="Rectangle" fill="#4D362C"></path>
                        <polygon id="Rectangle-Copy" fill="#2E1F18" transform="translate(18.237900, 51.749189) scale(-1, 1) translate(-18.237900, -51.749189) " points="17.5358377 46.4150883 18.9387979 46.4150883 18.9399619 56.9868427 17.5581374 57.0832903"></polygon>
                        <polygon id="Path-96" fill="url(#linearGradient-20)" points="16.8355217 0 11.8819921 10.5324709 13.5331686 10.5324709 9.4052273 19.4444935 11.0564038 19.4444935 5.7490507 30.7797884 7.28228605 30.9664538 0 46.4150883 16.8355217 46.4150883"></polygon>
                        <polygon id="Path-96-Copy" fill="url(#linearGradient-21)" transform="translate(25.253283, 23.207544) scale(-1, 1) translate(-25.253283, -23.207544) " points="33.6710434 0 28.7175138 10.5324709 30.3686903 10.5324709 26.240749 19.4444935 27.8919255 19.4444935 22.5845724 30.7797884 24.1178077 30.9664538 16.8355217 46.4150883 33.6710434 46.4150883"></polygon>
                    </g>
                    <g id="Group" transform="translate(83.597043, 79.607780)" fill-rule="nonzero">
                        <polygon id="Path-107" fill="#903E29" points="20.7990993 0.230167803 14.118833 27.5786311 13.403864 41.4302045 28.6565368 41.2715882 24.8433686 24.7507996"></polygon>
                        <polygon id="Path-105" fill="#E77053" points="36.9761765 40.9276363 72.5657464 40.9276363 72.5657464 31.7631568 36.9761765 31.7631568"></polygon>
                        <path d="M20.7990993,0 C20.9001853,4.43097755 21.0324862,7.53556652 21.196002,9.3137669 C21.4412756,11.9810675 21.5977392,13.5651396 21.667052,14.6691829 C21.8103411,16.9515525 22.0766449,18.5143077 22.138102,19.2096442 C22.3626777,21.7505346 22.7269144,22.7023068 22.9624394,24.5650602 C23.1194561,25.8068958 24.4540977,31.274809 26.9663643,40.9687997 L36.9761765,40.9687997 L36.9761765,34.4609375 L20.7990993,0 Z" id="Path-101" fill="url(#linearGradient-22)"></path>
                        <path d="M1.66977543e-13,35.4458416 C3.76511645,29.0127563 6.85952105,23.998592 9.2832138,20.4033487 C11.7069066,16.8081054 15.545535,10.0069892 20.7990993,-4.26325641e-14 L20.7990993,0.920671211 L4.62202206,34.5251704 L4.62202206,35.4458416 L1.66977543e-13,35.4458416 Z" id="Path-103" fill="#DE6C50"></path>
                        <polygon id="Path-104" fill="url(#linearGradient-23)" points="4.62976847 40.5559892 36.9839229 40.5559892 36.9695607 46.5629029 4.69183648 46.5673034"></polygon>
                        <path d="M36.9684194,40.5506967 L36.9566061,46.4699414 C48.7809066,46.5704955 57.6295601,46.5886733 63.5025666,46.5244748 C69.375573,46.4602763 72.4115019,46.3524079 72.610353,46.2008696 L72.6277176,40.5559892 L36.9684194,40.5506967 Z" id="Path-106" fill="#DE6C50"></path>
                        <path d="M20.7990993,0.460335605 C17.5667911,17.1452763 15.7796093,26.4996348 15.4375537,28.5234111 C15.0954981,30.5471875 14.6938883,34.6073075 14.2327242,40.703771 L4.62202206,40.703771 L4.62202206,31.6668075 L20.7990993,0.230167803 L20.7990993,0.460335605 Z" id="Path-102" fill="url(#linearGradient-24)"></path>
                        <path d="M20.7990993,0 C27.3583599,2.31354782 32.7450128,3.55095895 36.9590579,3.71223341 C41.173103,3.87350787 48.3024965,3.11509459 58.3472384,1.43699358 C60.5569342,7.6759381 62.418498,12.3062507 63.93193,15.3279315 C65.445362,18.3496123 69.2477052,24.9358328 75.3389596,35.0865932 L36.9590579,35.4458416 L20.7990993,0 Z" id="Path-100" fill="url(#linearGradient-25)"></path>
                    </g>
                </g>
                <g id="Moank-Logo" transform="translate(117.149425, 179.677127) rotate(-4.000000) translate(-117.149425, -179.677127) translate(45.440334, 160.730461)" fill="#4D669A" fill-rule="evenodd">
                    <path d="M31.3442817,6.39488462e-14 C30.3185226,6.39488462e-14 29.5483,0.505457514 28.9896013,1.54524612 L16.9820119,23.804739 L4.97507948,1.5459255 C4.41605227,0.505457514 3.64582969,6.39488462e-14 2.62007058,6.39488462e-14 C1.19983927,6.39488462e-14 -4.8316906e-13,1.24088461 -4.8316906e-13,2.70970066 L-4.8316906e-13,35.1836475 C-4.8316906e-13,36.6521238 1.19983927,37.8930084 2.62007058,37.8930084 C4.04030189,37.8930084 5.24014116,36.6521238 5.24014116,35.1836475 L5.24014116,12.6816165 L14.7370348,30.1358661 C15.1742059,30.9494217 16.0344247,31.4548792 16.9820119,31.4548792 C17.9299276,31.4548792 18.7901464,30.9494217 19.2273175,30.1358661 L28.7242111,12.6816165 L28.7242111,35.1836475 C28.7242111,36.6521238 29.9240504,37.8930084 31.3442817,37.8930084 C32.7641846,37.8930084 33.9640238,36.6521238 33.9640238,35.1836475 L33.9640238,2.70970066 C33.9640238,1.24088461 32.7641846,6.39488462e-14 31.3442817,6.39488462e-14" id="Fill-1"></path>
                    <path d="M51.7100177,33.9988116 C48.7447429,33.9988116 45.2102588,32.4600195 45.2102588,25.1305459 C45.2102588,17.7545349 48.7447429,16.2062315 51.7100177,16.2062315 C54.6749641,16.2062315 58.2094482,17.7545349 58.2094482,25.1305459 C58.2094482,32.4600195 54.6749641,33.9988116 51.7100177,33.9988116 Z M51.7100177,12.0297529 C44.2084768,12.0297529 40.2433907,16.559848 40.2433907,25.1305459 C40.2433907,33.6645574 44.2084768,38.1756298 51.7100177,38.1756298 C59.2115587,38.1756298 63.1763163,33.6645574 63.1763163,25.1305459 C63.1763163,16.559848 59.2115587,12.0297529 51.7100177,12.0297529 L51.7100177,12.0297529 Z" id="Fill-3"></path>
                    <path d="M105.626912,12.0728935 C98.6239629,12.0728935 95.362095,15.2846548 95.362095,22.180685 L95.362095,35.3399045 C95.362095,36.7642213 96.440735,37.8797606 97.817939,37.8797606 C99.1951429,37.8797606 100.274111,36.7642213 100.274111,35.3399045 L100.274111,22.180685 C100.274111,18.4699203 102.075348,16.5887216 105.626912,16.5887216 C109.215262,16.5887216 111.034564,18.4699203 111.034564,22.180685 L111.034564,35.3399045 C111.034564,36.7642213 112.113204,37.8797606 113.490408,37.8797606 C114.867941,37.8797606 115.946909,36.7642213 115.946909,35.3399045 L115.946909,22.180685 C115.946909,15.2846548 112.667633,12.0728935 105.626912,12.0728935" id="Fill-4"></path>
                    <path d="M83.6547118,28.5196249 C83.6547118,32.1519214 80.5311225,34.1119281 77.5917955,34.1119281 C73.2194275,34.1119281 72.5667912,31.6342351 72.5667912,30.1572665 C72.5667912,27.822243 74.1390963,26.4284983 76.7726334,26.4284983 L83.6547118,26.4284983 L83.6547118,28.5196249 Z M78.1931932,12.0297529 C73.5803975,12.0297529 70.9754358,13.9038182 69.6025017,15.4758998 C69.2267513,15.9076447 69.0194974,16.4487696 69.0194974,16.998047 C69.0194974,18.1808448 69.9500051,19.1431843 71.0933505,19.1431843 C71.6182185,19.1431843 71.9598098,19.024293 72.4465773,18.6720354 C73.9029385,17.5880871 75.668374,16.4321248 78.1931932,16.4321248 C81.5618085,16.4321248 83.6547118,18.2504811 83.6547118,21.1772431 L83.6547118,22.7038063 L76.008323,22.7038063 C71.8501065,22.7038063 67.6547747,25.0085975 67.6547747,30.1572665 C67.6547747,34.9529985 71.0339004,38.1756298 76.0631747,38.1756298 C76.0631747,38.1756298 81.2133197,38.388615 83.709235,35.0236539 L83.709235,35.4095408 C83.709235,36.755729 84.8092245,37.8930084 86.1108842,37.8930084 C87.412544,37.8930084 88.5125335,36.755729 88.5125335,35.4095408 L88.5125335,20.9513498 C88.5125335,15.2815976 84.7510883,12.0297529 78.1931932,12.0297529 L78.1931932,12.0297529 Z" id="Fill-6"></path>
                    <path d="M142.726349,35.4659292 C142.726349,34.9434872 142.555882,34.4363312 142.219546,33.9583886 L133.900485,22.6627039 L141.445382,16.7059143 C141.999154,16.2656771 142.344358,15.5333072 142.344358,14.7955023 C142.344358,13.4343677 141.313016,12.3680834 139.996904,12.3680834 C139.490429,12.3680834 139.04439,12.473387 138.385841,12.9968481 L127.708816,21.6596018 L127.708816,2.42741895 C127.708816,1.04352519 126.653167,6.39488462e-14 125.252972,6.39488462e-14 C123.829784,6.39488462e-14 122.796471,1.02076601 122.796471,2.42741895 L122.796471,35.4659292 C122.796471,36.8722424 123.829784,37.8930084 125.252972,37.8930084 C126.653167,37.8930084 127.708816,36.8494832 127.708816,35.4659292 L127.708816,27.0847778 L130.043132,25.1988234 L138.480436,36.9119861 C138.805604,37.3596964 139.398462,37.8930084 140.379552,37.8930084 C141.695335,37.8930084 142.726349,36.8267241 142.726349,35.4659292" id="Fill-5"></path>
                </g>
            </g>
            <g id="Group" transform="translate(94.000000, 402.548632) rotate(-1.000000) translate(-94.000000, -402.548632) translate(4.000000, 257.548632)">
                <path d="M14.5532916,43.7055606 L169.166939,49.072409 L169.898108,281.854476 C165.148523,279.318227 161.87709,277.499717 160.083808,276.398947 C115.262347,248.886183 82.2723113,217.376068 57.4380569,176.288701 C31.1133955,132.735511 16.8184737,88.5411304 14.5532916,43.7055606 Z" id="Rectangle-Copy-15" fill="#345660" transform="translate(92.225700, 162.780018) rotate(5.000000) translate(-92.225700, -162.780018) "></path>
                <path d="M13.8884436,29.8089049 L161.878383,33.5994065 L162.123832,276.729481 C158.070158,274.359475 155.170477,272.624087 153.424786,271.523316 C109.79283,244.010553 79.9748135,208.595848 55.7996288,167.508481 C30.1735905,123.955291 16.2031954,78.0554321 13.8884436,29.8089049 Z" id="Rectangle-Copy-7" fill="#484D65" transform="translate(88.006138, 153.269193) rotate(5.000000) translate(-88.006138, -153.269193) "></path>
                <path d="M135.468285,12.3509405 L152.034007,32.4268874 L153.759049,276.42126 C150.806571,274.88658 147.656873,273.055079 144.309956,270.926757 C140.963038,268.798434 137.75117,266.586808 134.674354,264.291877 L134.413077,12.4432593 L135.468285,12.3509405 Z" id="Rectangle-Copy-6" fill="#FFECC4" transform="translate(144.086063, 144.386100) rotate(5.000000) translate(-144.086063, -144.386100) "></path>
                <path d="M12.4812484,7.58236721 L136.248291,6.21966317 L135.99987,258.556185 C94.9290174,228.666435 63.6265932,192.017694 42.0925971,148.609962 C20.558601,105.20223 10.6881514,58.193032 12.4812484,7.58236721 Z" id="Rectangle" fill="#FFF7E7" transform="translate(74.261396, 132.387924) rotate(5.000000) translate(-74.261396, -132.387924) "></path>
            </g>
        </g>
    </g>
</svg>