<?xml version="1.0" encoding="UTF-8"?>
<svg width="1000px" height="680px" viewBox="0 0 1000 680" version="1.1" xmlns="http://www.w3.org/2000/svg" xmlns:xlink="http://www.w3.org/1999/xlink">
    <!-- Generator: Sketch 52.6 (67491) - http://www.bohemiancoding.com/sketch -->
    <title>Samlingslån Copy 4</title>
    <desc>Created with Sketch.</desc>
    <defs>
        <linearGradient x1="96.570732%" y1="121.693594%" x2="9.03769999%" y2="33.4890828%" id="linearGradient-1">
            <stop stop-color="#2FC587" offset="0%"></stop>
            <stop stop-color="#D0FDEB" offset="100%"></stop>
        </linearGradient>
        <linearGradient x1="50%" y1="0%" x2="50%" y2="100%" id="linearGradient-2">
            <stop stop-color="#FFF2D7" offset="0%"></stop>
            <stop stop-color="#F7CE8F" offset="100%"></stop>
        </linearGradient>
        <linearGradient x1="50%" y1="-31.8306428%" x2="50%" y2="59.720314%" id="linearGradient-3">
            <stop stop-color="#D8E9EE" offset="0%"></stop>
            <stop stop-color="#3891AC" offset="100%"></stop>
        </linearGradient>
        <linearGradient x1="50%" y1="0%" x2="50%" y2="96.7733923%" id="linearGradient-4">
            <stop stop-color="#FFFFFF" offset="0%"></stop>
            <stop stop-color="#F2F6FF" offset="100%"></stop>
        </linearGradient>
        <linearGradient x1="50%" y1="-15.0597964%" x2="50%" y2="59.5953389%" id="linearGradient-5">
            <stop stop-color="#D8E9EE" offset="0%"></stop>
            <stop stop-color="#3891AC" offset="100%"></stop>
        </linearGradient>
        <linearGradient x1="50%" y1="0%" x2="50%" y2="100%" id="linearGradient-6">
            <stop stop-color="#FFFFFF" offset="0%"></stop>
            <stop stop-color="#F2F6FF" offset="100%"></stop>
        </linearGradient>
        <linearGradient x1="50%" y1="35.3188784%" x2="50%" y2="-15.9102297%" id="linearGradient-7">
            <stop stop-color="#3891AC" offset="0%"></stop>
            <stop stop-color="#9EC9D6" offset="100%"></stop>
        </linearGradient>
        <linearGradient x1="50%" y1="0%" x2="50%" y2="100%" id="linearGradient-8">
            <stop stop-color="#FFFFFF" offset="0%"></stop>
            <stop stop-color="#F0F5FF" offset="100%"></stop>
        </linearGradient>
        <linearGradient x1="82.8583843%" y1="113.992593%" x2="17.4910635%" y2="-8.37881329%" id="linearGradient-9">
            <stop stop-color="#2F7A5D" offset="0%"></stop>
            <stop stop-color="#93E4C4" offset="100%"></stop>
        </linearGradient>
        <path d="M130,50 C127.781261,39.6918997 116.702659,19.4226854 102.645613,24.9145397 C87.295561,30.911892 83.9246875,17.8317681 77.5954952,12.3930733 C66.0137776,2.43582541 60.3084485,27.1404708 53.0686172,14.4430949 C42.9559967,-3.28509775 34.7652773,-5.09348552 28.2348388,11.2438627 C18.8467046,34.7364726 3.45640311,8.72217179 0,50 L130,50" id="path-10"></path>
        <linearGradient x1="39.011607%" y1="178.725725%" x2="10.7295306%" y2="-99.6122621%" id="linearGradient-12">
            <stop stop-color="#064E32" offset="0%"></stop>
            <stop stop-color="#94E5C5" offset="100%"></stop>
        </linearGradient>
        <linearGradient x1="0%" y1="23.3860924%" x2="59.9456793%" y2="89.8696905%" id="linearGradient-13">
            <stop stop-color="#3CC79D" offset="0%"></stop>
            <stop stop-color="#1A8F5E" offset="100%"></stop>
        </linearGradient>
        <linearGradient x1="118.230079%" y1="23.956118%" x2="50%" y2="107.938339%" id="linearGradient-14">
            <stop stop-color="#1C9670" offset="0%"></stop>
            <stop stop-color="#034328" offset="100%"></stop>
        </linearGradient>
        <linearGradient x1="-10.5870287%" y1="100%" x2="50%" y2="67.0789738%" id="linearGradient-15">
            <stop stop-color="#FFC1AA" offset="0%"></stop>
            <stop stop-color="#FF8D71" offset="100%"></stop>
        </linearGradient>
        <linearGradient x1="50%" y1="-22.8624399%" x2="50%" y2="100%" id="linearGradient-16">
            <stop stop-color="#FFC0A9" offset="0%"></stop>
            <stop stop-color="#FF704E" offset="100%"></stop>
        </linearGradient>
        <linearGradient x1="81.4968682%" y1="118.501531%" x2="38.6553008%" y2="53.8744193%" id="linearGradient-17">
            <stop stop-color="#FFC1AA" offset="0%"></stop>
            <stop stop-color="#FF8D71" offset="100%"></stop>
        </linearGradient>
        <linearGradient x1="30.3525342%" y1="-36.0196636%" x2="50%" y2="100%" id="linearGradient-18">
            <stop stop-color="#FFD4C6" offset="0%"></stop>
            <stop stop-color="#FFA994" offset="100%"></stop>
        </linearGradient>
    </defs>
    <g id="Samlingslån-Copy-4" stroke="none" stroke-width="1" fill="none" fill-rule="evenodd">
        <rect fill="#F5FDFF" x="0" y="0" width="1000" height="680"></rect>
        <path d="M1106.5,452.858763 C963.279643,452.858763 972.300811,555.320292 924.702396,517.358763 C784.385112,405.446085 718.189362,442.843144 587.448595,543.888786 C559.592393,565.418867 514.626336,601.212429 439.249392,575.740795 C328.934739,538.462634 215.479063,576.157843 168,679.858763 L1419,679.858763 C1383.39354,598.841604 1249.72036,452.858763 1106.5,452.858763 Z" id="Fill-4" fill-opacity="0.7" fill="url(#linearGradient-1)"></path>
        <ellipse id="Oval" fill="url(#linearGradient-2)" fill-rule="nonzero" cx="691" cy="532.5" rx="127" ry="123.5"></ellipse>
        <path d="M791.376525,742.00001 C837.900359,742.00001 984.071991,708.393224 933.071991,625.50001 C882.071991,542.606797 797.454943,395.954716 787.965389,396.00001 C778.475835,396.045305 693.071991,550.270941 646.523914,625.50001 C636.057616,642.415207 682.741616,666.713581 688.049379,682.08074 C704.053542,728.416366 756.439512,742.00001 791.376525,742.00001 Z" id="Oval-Copy" fill="url(#linearGradient-3)" fill-rule="nonzero"></path>
        <path d="M762.372616,430.44998 C768.419507,420.704377 783.976247,396.045356 787.878248,396.000061 C791.780248,395.954767 808.616177,420.962478 814.667988,430.44998 C818.702529,436.774981 824.463545,446.239518 831.951036,458.843591 C829.05699,464.50386 825.089422,466.816135 820.048333,465.780416 C815.007244,464.744697 812.069961,461.333011 811.236483,455.545356 C808.23935,460.157709 804.700243,462.463885 800.619162,462.463885 C796.538081,462.463885 792.405469,458.991042 788.221328,452.045356 C785.374467,457.172454 780.117703,459.736004 772.451036,459.736004 C764.784369,459.736004 758.300691,455.094284 753,445.810846 C755.217149,442.067337 758.341354,436.947048 762.372616,430.44998 Z" id="Path-71-Copy-5" fill="url(#linearGradient-4)" fill-rule="nonzero"></path>
        <path d="M683.792905,795.608282 C739.578933,795.608282 895.682974,764.608282 840.463376,691.608282 C785.243777,618.608282 690.206061,467 679.507894,467 C668.809726,467 589.405505,607.108282 536.463376,680.608282 C483.521247,754.108282 628.006876,795.608282 683.792905,795.608282 Z" id="Oval-Copy-5" fill="url(#linearGradient-5)" fill-rule="nonzero"></path>
        <path d="M660.077232,490.066972 C664.236948,484.077588 674.759762,467 679.544518,467 C684.329274,467 696.621972,485.286006 700.083743,489.90202 C701.747877,492.121019 705.958271,498.058143 713.131427,508.169021 C715.980132,512.184393 721.201725,519.648195 728.796207,530.560427 C728.796207,532.59233 726.999306,534.108282 723.405503,535.108282 C719.8117,536.108282 714.730843,534.142048 708.162929,529.209579 C703.855592,535.790513 699.035256,539.049156 693.701923,538.985508 C688.36859,538.92186 683.649455,534.713135 679.544518,526.359332 C670.153703,534.668194 661.472197,538.251177 653.5,537.108282 C645.527803,535.965388 640.361136,531.465388 638,523.608282 C649.94501,505.240332 657.304087,494.059895 660.077232,490.066972 Z" id="Path-71-Copy-4" fill="url(#linearGradient-6)" fill-rule="nonzero"></path>
        <path d="M903.506643,840 C931.09919,840 988.131413,816.350846 1005.25314,766.386656 C1017.00705,732.086669 1022.3311,708.277023 985.316664,643.089885 C939.867895,563.048812 905.966502,508 900.135627,508 C894.304752,508 858.290873,565.771278 814.087624,643.089885 C776.048911,709.625723 771.363127,725.649637 797.171654,766.386656 C816.419414,796.767947 883.62736,840 903.506643,840 Z" id="Oval-Copy-4" fill="url(#linearGradient-7)" fill-rule="nonzero"></path>
        <path d="M881.799497,529.765129 C884.935861,524.802839 895.571429,508.000847 900.051948,508 C904.532468,507.999153 910.85928,518.938315 918.028111,529.765129 C919.664913,532.237129 925.268746,541.245071 934.839612,556.788956 C933.955764,559.517646 928.931304,561.21286 919.766234,561.874598 C910.601163,562.536335 903.805594,560.456597 899.379526,555.635384 C896.560544,559.211795 893.376859,561 889.828472,561 C886.280085,561 883.265832,559.00515 880.785714,555.015451 C879.112521,557.671817 876.545419,559 873.084408,559 C869.623397,559 867.261928,557.671817 866,555.015451 C873.625635,542.781872 878.892134,534.365098 881.799497,529.765129 Z" id="Path-71-Copy-3" fill="url(#linearGradient-8)" fill-rule="nonzero"></path>
        <path d="M878.555842,535.199592 C854.197805,495.459765 839.899502,472.08887 835.660934,465.086908 C830.078795,455.865415 821.62959,441.728015 816.603833,433.45089 C811.578077,425.173766 806.790411,418.24129 802.451219,412.286797 C798.112026,406.332305 790.694435,396.045295 788.039875,396 C788.039875,396 788.039875,434.638797 788.039875,511.91639 L788.039875,550.045295 L769.463905,532.395295 L760.779299,576.964447 C752.504803,564.881141 746.607067,556.238765 743.086092,551.037319 C737.804629,543.235149 724.540084,523.592151 720.150108,517.421444 C715.760131,511.250737 699.010022,487.887407 697.242248,485.371138 C696.063732,483.693626 693.982983,480.918344 691,477.045295 C688.702596,473.941058 684.166775,468.979205 682.9744,468.129205 C681.782025,467.279205 680.73891,466.437012 679.544518,466.437012 C679.544518,466.437012 679.544518,496.651516 679.544518,557.080525 L659.331655,608.445295 L646.104308,601.245295 L633.70905,630.045295 L626.660261,614.231545 L594,684.045295 L789.902703,677.604879 L878.555842,535.199592 Z" id="Path-94-Copy" fill-opacity="0.7" fill="#0E4D60" fill-rule="nonzero"></path>
        <path d="M900,508 C900,508 899.666667,540.801401 899,606.404203 L883.431373,597.5 L871.254902,629.496528 L861.513725,602.497299 L823,687 L1007,687 C994.395171,660.692788 983.270988,639.275028 973.627451,622.746721 C967.125799,611.603371 950.109436,582.366748 943.442129,571.053726 C936.774823,559.740703 931.91503,552.086795 925.746556,542.043397 C919.578082,532 910.455463,517.940628 908.024276,514.747735 C905.593089,511.554842 903.630588,509.413042 901.781073,508.476041 C901.178887,508.170962 900.763113,508 900,508 Z" id="Path-95-Copy" fill-opacity="0.6" fill="#0E4D60" fill-rule="nonzero"></path>
        <g id="Group-12-Copy-3" transform="translate(609.000000, 597.000000)" fill="url(#linearGradient-9)">
            <path d="M41.8082636,62.6860644 C65.2645346,67.5426557 70.4188089,56.9505123 80.0885874,52.5463158 C97.7935753,44.4830437 111.458313,71.0858932 117.577801,54.2064012 C125.391264,32.6565982 157.151613,30.5845799 176.752845,43.2017802 C184.818919,48.393865 185.309776,37.0819273 189.491779,30.5675987 C197.612863,17.918546 207.447334,41.2669706 211.959897,39.9857071 C217.083586,38.5299038 215.519599,28.5913065 218.520524,20.0811184 C224.771765,2.35005973 235.560862,19.014312 242.998474,17.5506817 C250.403737,16.0948784 254.368111,-3.41993076 262.752702,0.525609399 C280.665908,8.95283235 275.043438,58.4939769 273.935884,69.5455594 C279.030163,60.1149279 288,53.189687 288,83 L0,83 C3.38736339,74.6526114 20.3194749,58.23882 41.8082636,62.6860644 Z" id="Fill-10"></path>
        </g>
        <g id="Group-85-Copy" transform="translate(993.000000, 655.000000) scale(-1, 1) translate(-993.000000, -655.000000) translate(928.000000, 630.000000)">
            <mask id="mask-11" fill="white">
                <use xlink:href="#path-10"></use>
            </mask>
            <g id="Clip-84"></g>
            <path d="M102.645613,24.9145397 C87.295561,30.911892 83.9246875,17.8317681 77.5954952,12.3930733 C66.0137776,2.43582541 60.3084485,27.1404708 53.0686172,14.4430949 C42.9559967,-3.28509775 34.7652773,-5.09348552 28.2348388,11.2438627 C18.8467046,34.7364726 3.45640311,8.72217179 0,50 L130,50 C127.781261,39.6918997 116.702659,19.4226854 102.645613,24.9145397 Z" id="Fill-83" fill="url(#linearGradient-12)" mask="url(#mask-11)"></path>
        </g>
        <g id="Group-Copy-9" transform="translate(888.000000, 547.000000)" fill-rule="nonzero">
            <rect id="Rectangle" fill="#4D362C" x="29" y="92" width="6" height="16"></rect>
            <rect id="Rectangle-Copy" fill="#2E1F18" transform="translate(36.500000, 100.000000) scale(-1, 1) translate(-36.500000, -100.000000) " x="35" y="92" width="3" height="16"></rect>
            <polygon id="Path-96" fill="url(#linearGradient-13)" points="34 0 23.9961516 20.8765587 27.3307678 20.8765587 18.9942274 38.5412043 22.3288436 38.5412043 11.6104346 61.0090519 14.7068639 61.3790441 0 92 34 92"></polygon>
            <polygon id="Path-96-Copy" fill="url(#linearGradient-14)" transform="translate(51.000000, 46.000000) scale(-1, 1) translate(-51.000000, -46.000000) " points="68 0 57.9961516 20.8765587 61.3307678 20.8765587 52.9942274 38.5412043 56.3288436 38.5412043 45.6104346 61.0090519 48.7068639 61.3790441 34 92 68 92"></polygon>
        </g>
        <g id="Group-Copy" transform="translate(915.000000, 506.000000)" fill-rule="nonzero">
            <rect id="Rectangle" fill="#4D362C" x="49" y="154.35443" width="9.33333333" height="27.6455696"></rect>
            <rect id="Rectangle-Copy" fill="#2E1F18" transform="translate(60.666667, 168.177215) scale(-1, 1) translate(-60.666667, -168.177215) " x="58.3333333" y="154.35443" width="4.66666667" height="27.6455696"></rect>
            <polygon id="Path-96" fill="url(#linearGradient-13)" points="56 0 39.5230733 35.025971 45.0153822 35.025971 31.2846099 64.6631047 36.7769188 64.6631047 19.1230688 102.358885 24.2230699 102.979645 0 154.35443 56 154.35443"></polygon>
            <polygon id="Path-96-Copy" fill="url(#linearGradient-14)" transform="translate(84.000000, 77.177215) scale(-1, 1) translate(-84.000000, -77.177215) " points="112 0 95.5230733 35.025971 101.015382 35.025971 87.2846099 64.6631047 92.7769188 64.6631047 75.1230688 102.358885 80.2230699 102.979645 56 154.35443 112 154.35443"></polygon>
        </g>
        <g id="Group-Copy-6" transform="translate(536.000000, 538.000000)" fill-rule="nonzero">
            <rect id="Rectangle" fill="#4D362C" x="39.375" y="123.822785" width="7.5" height="22.1772152"></rect>
            <rect id="Rectangle-Copy" fill="#2E1F18" transform="translate(48.750000, 134.911392) scale(-1, 1) translate(-48.750000, -134.911392) " x="46.875" y="123.822785" width="3.75" height="22.1772152"></rect>
            <polygon id="Path-96" fill="url(#linearGradient-13)" points="45 0 31.7596125 28.097757 36.173075 28.097757 25.1394187 51.8726005 29.5528812 51.8726005 15.3667517 82.1120729 19.4649669 82.6100453 0 123.822785 45 123.822785"></polygon>
            <polygon id="Path-96-Copy" fill="url(#linearGradient-14)" transform="translate(67.500000, 61.911392) scale(-1, 1) translate(-67.500000, -61.911392) " points="90 0 76.7596125 28.097757 81.173075 28.097757 70.1394187 51.8726005 74.5528812 51.8726005 60.3667517 82.1120729 64.4649669 82.6100453 45 123.822785 90 123.822785"></polygon>
        </g>
        <g id="Group-Copy-7" transform="translate(511.000000, 575.000000)" fill-rule="nonzero">
            <rect id="Rectangle" fill="#4D362C" x="30.1875" y="94.9873418" width="5.75" height="17.0126582"></rect>
            <rect id="Rectangle-Copy" fill="#2E1F18" transform="translate(37.375000, 103.493671) scale(-1, 1) translate(-37.375000, -103.493671) " x="35.9375" y="94.9873418" width="2.875" height="17.0126582"></rect>
            <polygon id="Path-96" fill="url(#linearGradient-13)" points="34.5 0 24.3490362 21.5544437 27.7326908 21.5544437 19.2735543 39.7926798 22.6572089 39.7926798 11.7811763 62.9900833 14.9231413 63.3720895 0 94.9873418 34.5 94.9873418"></polygon>
            <polygon id="Path-96-Copy" fill="url(#linearGradient-14)" transform="translate(51.750000, 47.493671) scale(-1, 1) translate(-51.750000, -47.493671) " points="69 0 58.8490362 21.5544437 62.2326908 21.5544437 53.7735543 39.7926798 57.1572089 39.7926798 46.2811763 62.9900833 49.4231413 63.3720895 34.5 94.9873418 69 94.9873418"></polygon>
        </g>
        <g id="Group-Copy-8" transform="translate(754.000000, 575.000000)" fill-rule="nonzero">
            <rect id="Rectangle" fill="#4D362C" x="30.1875" y="94.9873418" width="5.75" height="17.0126582"></rect>
            <rect id="Rectangle-Copy" fill="#2E1F18" transform="translate(37.375000, 103.493671) scale(-1, 1) translate(-37.375000, -103.493671) " x="35.9375" y="94.9873418" width="2.875" height="17.0126582"></rect>
            <polygon id="Path-96" fill="url(#linearGradient-13)" points="34.5 0 24.3490362 21.5544437 27.7326908 21.5544437 19.2735543 39.7926798 22.6572089 39.7926798 11.7811763 62.9900833 14.9231413 63.3720895 0 94.9873418 34.5 94.9873418"></polygon>
            <polygon id="Path-96-Copy" fill="url(#linearGradient-14)" transform="translate(51.750000, 47.493671) scale(-1, 1) translate(-51.750000, -47.493671) " points="69 0 58.8490362 21.5544437 62.2326908 21.5544437 53.7735543 39.7926798 57.1572089 39.7926798 46.2811763 62.9900833 49.4231413 63.3720895 34.5 94.9873418 69 94.9873418"></polygon>
        </g>
        <g id="Group" transform="translate(787.000000, 573.000000)" fill-rule="nonzero">
            <polygon id="Path-107" fill="#903E29" points="49.4171779 0.550505051 33.5453413 65.9613356 31.8466258 99.0909091 68.0858896 98.7115378 59.0260736 59.197855"></polygon>
            <polygon id="Path-105" fill="#E77053" points="87.8527607 97.8888889 172.411043 97.8888889 172.411043 75.969697 87.8527607 75.969697"></polygon>
            <path d="M49.4171779,0 C49.6573512,10.5978138 49.9716887,18.0232308 50.3601905,22.2762509 C50.9429432,28.655781 51.3146895,32.4444938 51.4793717,35.0850951 C51.8198164,40.5439647 52.4525352,44.2816926 52.5985529,45.9447674 C53.1321289,52.0219554 53.9975294,54.2983615 54.55712,58.7536117 C54.9301804,61.7237785 58.1011938,74.8016885 64.0701602,97.9873418 L87.8527607,97.9873418 L87.8527607,82.4221283 L49.4171779,0 Z" id="Path-101" fill="url(#linearGradient-15)"></path>
            <path d="M1.66977543e-13,84.7777778 C8.94564841,69.3914123 16.2977333,57.3987585 22.0562545,48.7998164 C27.8147758,40.2008744 36.9350836,23.9342689 49.4171779,-4.26325641e-14 L49.4171779,2.2020202 L10.9815951,82.5757576 L10.9815951,84.7777778 L1.66977543e-13,84.7777778 Z" id="Path-103" fill="#DE6C50"></path>
            <polygon id="Path-104" fill="url(#linearGradient-16)" points="11 97 87.8711656 97 87.8711656 110.212121 11 110.212121"></polygon>
            <polygon id="Path-106" fill="#DE6C50" points="87.8343303 96.9873418 87.8343303 110.212121 172.558282 110.212121 172.558282 97"></polygon>
            <path d="M49.4171779,1.1010101 C41.7374441,41.0073045 37.4912273,63.3806406 36.6785276,68.2210183 C35.8658279,73.0613961 34.9116316,82.7722093 33.8159386,97.353458 L10.9815951,97.353458 L10.9815951,75.739253 L49.4171779,0.550505051 L49.4171779,1.1010101 Z" id="Path-102" fill="url(#linearGradient-17)"></path>
            <path d="M49.4171779,0 C65.0015138,5.53344014 77.7998172,8.49302472 87.8120882,8.87875375 C97.8243592,9.26448279 114.76329,7.45054385 138.628881,3.43693694 C143.878961,18.3589652 148.301904,29.4335398 151.89771,36.6606607 C155.493517,43.8877815 164.527613,59.6404091 179,83.9185435 L87.8120882,84.7777778 L49.4171779,0 Z" id="Path-100" fill="url(#linearGradient-18)"></path>
        </g>
    </g>
</svg>